<mxfile host="app.diagrams.net" agent="Mozilla/5.0 (X11; Ubuntu; Linux x86_64; rv:138.0) Gecko/20100101 Firefox/138.0" version="26.3.0">
  <diagram id="C5RBs43oDa-KdzZeNtuy" name="Page-1">
    <mxGraphModel dx="2066" dy="1186" grid="1" gridSize="10" guides="1" tooltips="1" connect="1" arrows="1" fold="1" page="1" pageScale="1" pageWidth="827" pageHeight="1169" math="0" shadow="0">
      <root>
        <mxCell id="WIyWlLk6GJQsqaUBKTNV-0" />
        <mxCell id="WIyWlLk6GJQsqaUBKTNV-1" parent="WIyWlLk6GJQsqaUBKTNV-0" />
        <mxCell id="BkZe_GpuJbEBKpTBHpC8-53" value="" style="endArrow=none;html=1;rounded=1;strokeWidth=10;strokeColor=#24b064;" edge="1" parent="WIyWlLk6GJQsqaUBKTNV-1">
          <mxGeometry width="50" height="50" relative="1" as="geometry">
            <mxPoint x="327" y="400" as="sourcePoint" />
            <mxPoint x="327" y="300" as="targetPoint" />
          </mxGeometry>
        </mxCell>
        <mxCell id="BkZe_GpuJbEBKpTBHpC8-54" value="" style="endArrow=none;html=1;rounded=1;strokeWidth=10;strokeColor=#3d95fd;" edge="1" parent="WIyWlLk6GJQsqaUBKTNV-1">
          <mxGeometry width="50" height="50" relative="1" as="geometry">
            <mxPoint x="337" y="400" as="sourcePoint" />
            <mxPoint x="337" y="300" as="targetPoint" />
          </mxGeometry>
        </mxCell>
        <mxCell id="BkZe_GpuJbEBKpTBHpC8-1" value="" style="group" vertex="1" connectable="0" parent="WIyWlLk6GJQsqaUBKTNV-1">
          <mxGeometry x="130" y="60" width="100" height="110" as="geometry" />
        </mxCell>
        <mxCell id="BkZe_GpuJbEBKpTBHpC8-2" value="" style="shape=image;aspect=fixed;image=data:image/svg+xml,PD94bWwgdmVyc2lvbj0iMS4wIiBlbmNvZGluZz0iVVRGLTgiIHN0YW5kYWxvbmU9Im5vIj8+CjwhLS0gQ3JlYXRlZCB3aXRoIElua3NjYXBlIChodHRwOi8vd3d3Lmlua3NjYXBlLm9yZy8pIC0tPgoKPHN2ZwogICB3aWR0aD0iMjEuMTY2NjdtbSIKICAgaGVpZ2h0PSIyMy44MTI1MDJtbSIKICAgdmlld0JveD0iMCAwIDIxLjE2NjY3IDIzLjgxMjUwMiIKICAgdmVyc2lvbj0iMS4xIgogICBpZD0ic3ZnNzM2MiIKICAgeG1sbnM9Imh0dHA6Ly93d3cudzMub3JnLzIwMDAvc3ZnIgogICB4bWxuczpzdmc9Imh0dHA6Ly93d3cudzMub3JnLzIwMDAvc3ZnIj4KICA8ZGVmcwogICAgIGlkPSJkZWZzNzM1OSIgLz4KICA8ZwogICAgIGlkPSJsYXllcjEiCiAgICAgc3R5bGU9ImRpc3BsYXk6aW5saW5lIgogICAgIHRyYW5zZm9ybT0idHJhbnNsYXRlKDM3LjA0MTY3MywtMTQwLjIyOTE3KSI+CiAgICA8ZwogICAgICAgaWQ9ImcxODQ4OC0zLTIiCiAgICAgICB0cmFuc2Zvcm09InRyYW5zbGF0ZSgtMTY2LjY4NzQ5LDQ3LjYyNDk5NykiCiAgICAgICBzdHlsZT0iZGlzcGxheTppbmxpbmUiPgogICAgICA8cGF0aAogICAgICAgICBpZD0icGF0aDYyNzYtNC0wLTYiCiAgICAgICAgIHN0eWxlPSJmaWxsOiNmZmZmZmY7c3Ryb2tlLXdpZHRoOjAuMjMwNzAyIgogICAgICAgICBkPSJtIDEzMi4yOTE2Niw5My45MjcwNzIgdiAyMS4xNjY2NjggaCAxNS44NzUwMSBWIDk5LjIxODc0OCBsIC01LjI5MTY4LC01LjI5MTY3NiB6IiAvPgogICAgICA8cGF0aAogICAgICAgICBpZD0icGF0aDU4NjItMy03IgogICAgICAgICBkPSJtIDE0OS40ODk1OCw5Ny44OTU4MzIgYyAwLC0wLjI2NDU3NiAtMC4yNjQ1OCwtMC41MjkxNjQgLTAuNTI5MTcsLTAuNzkzNzUyIGwgLTQuNDk3OTEsLTMuOTY4NzQ4IGMgLTAuMjY0NTgsLTAuMjY0NTg4IC0wLjUyOTE3LC0wLjUyOTE2NCAtMC44Mjc4OCwtMC41MjkxNjQgaCAtMy40MDU0NSAtNy45Mzc1MSBjIC0wLjc5Mzc1LDAgLTEuMzIyOTIsMC41MjkxNjQgLTEuMzIyOTIsMS4zMjI5MTYgMCw3LjA1NTU1NiAwLDE0LjExMTEwNiAwLDIxLjE2NjY2NiAwLDAuNzkzNzUgMC41MjkxNywxLjMyMjkyIDEuMzIyOTIsMS4zMjI5MiBoIDcuOTM3NTEgNy45Mzc1IGMgMC43OTM3NCwwIDEuMzIyOTEsLTAuNTI5MTcgMS4zMjI5MSwtMS4zMjI5MiB6IG0gLTEuMzIyOTEsMTcuMTk3OTE4IEggMTMyLjI5MTY2IFYgOTMuOTI3MDg0IGggMTAuNTgzMzMgdiA0Ljc2MjUgYyAwLDAuMzE3NTA4IDAuMjAzNTMsMC41MjkxNjQgMC41MjkxNywwLjUyOTE2NCBoIDQuNzYyNTEgeiIKICAgICAgICAgc3R5bGU9InN0cm9rZS13aWR0aDowLjIzMTY3IiAvPgogICAgICA8cGF0aAogICAgICAgICBpZD0icmVjdDE4MzQ3LTYtMSIKICAgICAgICAgc3R5bGU9ImZpbGwtcnVsZTpldmVub2RkO3N0cm9rZS13aWR0aDowLjEyMjAyNztwYWludC1vcmRlcjpmaWxsIG1hcmtlcnMgc3Ryb2tlIgogICAgICAgICBkPSJtIDEzMS4wMTc1MiwxMDEuODY0NiBjIDYuMTQxMDksMCAxMi4yODIxNywwIDE4LjQyMzI2LDAgMC43NTk5MywwIDEuMzcxNzEsMC40OTcwNiAxLjM3MTcxLDEuMTE0NSB2IDIuODU0MjIgMi44NTQyNSBjIDAsMC42MTc0NCAtMC42MTE3OCwxLjExNDUgLTEuMzcxNzEsMS4xMTQ1IC02LjE0MTA5LDAgLTEyLjI4MjE3LDAgLTE4LjQyMzI2LDAgLTAuNzU5OTIsMCAtMS4zNzE3LC0wLjQ5NzA2IC0xLjM3MTcsLTEuMTE0NSB2IC0yLjg1NDI1IC0yLjg1NDIyIGMgMCwtMC42MTc0NCAwLjYxMTc4LC0xLjExNDUgMS4zNzE3LC0xLjExNDUgeiIgLz4KICAgIDwvZz4KICA8L2c+Cjwvc3ZnPgo=;" vertex="1" parent="BkZe_GpuJbEBKpTBHpC8-1">
          <mxGeometry width="97.77777777777779" height="110.00000000000001" as="geometry" />
        </mxCell>
        <mxCell id="BkZe_GpuJbEBKpTBHpC8-3" value="&lt;font style=&quot;font-size: 20px;&quot; color=&quot;#ffffff&quot; data-font-src=&quot;https://fonts.googleapis.com/css?family=Maven+Pro&quot; face=&quot;Maven Pro&quot;&gt;&lt;b&gt;fastq&lt;/b&gt;&lt;/font&gt;" style="text;html=1;strokeColor=none;fillColor=none;align=center;verticalAlign=middle;whiteSpace=wrap;rounded=0;" vertex="1" parent="BkZe_GpuJbEBKpTBHpC8-1">
          <mxGeometry x="12.5" y="42.77777777777778" width="75" height="36.66666666666667" as="geometry" />
        </mxCell>
        <mxCell id="BkZe_GpuJbEBKpTBHpC8-8" value="" style="group" vertex="1" connectable="0" parent="WIyWlLk6GJQsqaUBKTNV-1">
          <mxGeometry x="414" y="60" width="100" height="110" as="geometry" />
        </mxCell>
        <mxCell id="BkZe_GpuJbEBKpTBHpC8-9" value="" style="shape=image;aspect=fixed;image=data:image/svg+xml,PD94bWwgdmVyc2lvbj0iMS4wIiBlbmNvZGluZz0iVVRGLTgiIHN0YW5kYWxvbmU9Im5vIj8+CjwhLS0gQ3JlYXRlZCB3aXRoIElua3NjYXBlIChodHRwOi8vd3d3Lmlua3NjYXBlLm9yZy8pIC0tPgoKPHN2ZwogICB3aWR0aD0iMjEuMTY2NjdtbSIKICAgaGVpZ2h0PSIyMy44MTI1MDJtbSIKICAgdmlld0JveD0iMCAwIDIxLjE2NjY3IDIzLjgxMjUwMiIKICAgdmVyc2lvbj0iMS4xIgogICBpZD0ic3ZnNzM2MiIKICAgeG1sbnM9Imh0dHA6Ly93d3cudzMub3JnLzIwMDAvc3ZnIgogICB4bWxuczpzdmc9Imh0dHA6Ly93d3cudzMub3JnLzIwMDAvc3ZnIj4KICA8ZGVmcwogICAgIGlkPSJkZWZzNzM1OSIgLz4KICA8ZwogICAgIGlkPSJsYXllcjEiCiAgICAgc3R5bGU9ImRpc3BsYXk6aW5saW5lIgogICAgIHRyYW5zZm9ybT0idHJhbnNsYXRlKDM3LjA0MTY3MywtMTQwLjIyOTE3KSI+CiAgICA8ZwogICAgICAgaWQ9ImcxODQ4OC0zLTIiCiAgICAgICB0cmFuc2Zvcm09InRyYW5zbGF0ZSgtMTY2LjY4NzQ5LDQ3LjYyNDk5NykiCiAgICAgICBzdHlsZT0iZGlzcGxheTppbmxpbmUiPgogICAgICA8cGF0aAogICAgICAgICBpZD0icGF0aDYyNzYtNC0wLTYiCiAgICAgICAgIHN0eWxlPSJmaWxsOiNmZmZmZmY7c3Ryb2tlLXdpZHRoOjAuMjMwNzAyIgogICAgICAgICBkPSJtIDEzMi4yOTE2Niw5My45MjcwNzIgdiAyMS4xNjY2NjggaCAxNS44NzUwMSBWIDk5LjIxODc0OCBsIC01LjI5MTY4LC01LjI5MTY3NiB6IiAvPgogICAgICA8cGF0aAogICAgICAgICBpZD0icGF0aDU4NjItMy03IgogICAgICAgICBkPSJtIDE0OS40ODk1OCw5Ny44OTU4MzIgYyAwLC0wLjI2NDU3NiAtMC4yNjQ1OCwtMC41MjkxNjQgLTAuNTI5MTcsLTAuNzkzNzUyIGwgLTQuNDk3OTEsLTMuOTY4NzQ4IGMgLTAuMjY0NTgsLTAuMjY0NTg4IC0wLjUyOTE3LC0wLjUyOTE2NCAtMC44Mjc4OCwtMC41MjkxNjQgaCAtMy40MDU0NSAtNy45Mzc1MSBjIC0wLjc5Mzc1LDAgLTEuMzIyOTIsMC41MjkxNjQgLTEuMzIyOTIsMS4zMjI5MTYgMCw3LjA1NTU1NiAwLDE0LjExMTEwNiAwLDIxLjE2NjY2NiAwLDAuNzkzNzUgMC41MjkxNywxLjMyMjkyIDEuMzIyOTIsMS4zMjI5MiBoIDcuOTM3NTEgNy45Mzc1IGMgMC43OTM3NCwwIDEuMzIyOTEsLTAuNTI5MTcgMS4zMjI5MSwtMS4zMjI5MiB6IG0gLTEuMzIyOTEsMTcuMTk3OTE4IEggMTMyLjI5MTY2IFYgOTMuOTI3MDg0IGggMTAuNTgzMzMgdiA0Ljc2MjUgYyAwLDAuMzE3NTA4IDAuMjAzNTMsMC41MjkxNjQgMC41MjkxNywwLjUyOTE2NCBoIDQuNzYyNTEgeiIKICAgICAgICAgc3R5bGU9InN0cm9rZS13aWR0aDowLjIzMTY3IiAvPgogICAgICA8cGF0aAogICAgICAgICBpZD0icmVjdDE4MzQ3LTYtMSIKICAgICAgICAgc3R5bGU9ImZpbGwtcnVsZTpldmVub2RkO3N0cm9rZS13aWR0aDowLjEyMjAyNztwYWludC1vcmRlcjpmaWxsIG1hcmtlcnMgc3Ryb2tlIgogICAgICAgICBkPSJtIDEzMS4wMTc1MiwxMDEuODY0NiBjIDYuMTQxMDksMCAxMi4yODIxNywwIDE4LjQyMzI2LDAgMC43NTk5MywwIDEuMzcxNzEsMC40OTcwNiAxLjM3MTcxLDEuMTE0NSB2IDIuODU0MjIgMi44NTQyNSBjIDAsMC42MTc0NCAtMC42MTE3OCwxLjExNDUgLTEuMzcxNzEsMS4xMTQ1IC02LjE0MTA5LDAgLTEyLjI4MjE3LDAgLTE4LjQyMzI2LDAgLTAuNzU5OTIsMCAtMS4zNzE3LC0wLjQ5NzA2IC0xLjM3MTcsLTEuMTE0NSB2IC0yLjg1NDI1IC0yLjg1NDIyIGMgMCwtMC42MTc0NCAwLjYxMTc4LC0xLjExNDUgMS4zNzE3LC0xLjExNDUgeiIgLz4KICAgIDwvZz4KICA8L2c+Cjwvc3ZnPgo=;" vertex="1" parent="BkZe_GpuJbEBKpTBHpC8-8">
          <mxGeometry width="97.77777777777779" height="110.00000000000001" as="geometry" />
        </mxCell>
        <mxCell id="BkZe_GpuJbEBKpTBHpC8-10" value="&lt;font style=&quot;font-size: 20px;&quot; color=&quot;#ffffff&quot; data-font-src=&quot;https://fonts.googleapis.com/css?family=Maven+Pro&quot; face=&quot;Maven Pro&quot;&gt;&lt;b&gt;fastq&lt;/b&gt;&lt;/font&gt;" style="text;html=1;strokeColor=none;fillColor=none;align=center;verticalAlign=middle;whiteSpace=wrap;rounded=0;" vertex="1" parent="BkZe_GpuJbEBKpTBHpC8-8">
          <mxGeometry x="12.5" y="42.77777777777778" width="75" height="36.66666666666667" as="geometry" />
        </mxCell>
        <mxCell id="BkZe_GpuJbEBKpTBHpC8-12" value="&lt;b&gt;&lt;font style=&quot;font-size: 20px;&quot; data-font-src=&quot;https://fonts.googleapis.com/css?family=Maven+Pro&quot; face=&quot;Maven Pro&quot;&gt;RNA&lt;/font&gt;&lt;/b&gt;" style="text;html=1;align=center;verticalAlign=middle;whiteSpace=wrap;rounded=0;" vertex="1" parent="WIyWlLk6GJQsqaUBKTNV-1">
          <mxGeometry x="140" y="20" width="60" height="30" as="geometry" />
        </mxCell>
        <mxCell id="BkZe_GpuJbEBKpTBHpC8-13" value="&lt;font style=&quot;font-size: 20px;&quot; data-font-src=&quot;https://fonts.googleapis.com/css?family=Maven+Pro&quot; face=&quot;Maven Pro&quot;&gt;&lt;b&gt;DNA&lt;/b&gt;&lt;/font&gt;" style="text;html=1;align=center;verticalAlign=middle;whiteSpace=wrap;rounded=0;" vertex="1" parent="WIyWlLk6GJQsqaUBKTNV-1">
          <mxGeometry x="430" y="20" width="60" height="30" as="geometry" />
        </mxCell>
        <mxCell id="BkZe_GpuJbEBKpTBHpC8-24" value="" style="endArrow=none;html=1;rounded=0;strokeWidth=10;strokeColor=#24b064;" edge="1" parent="WIyWlLk6GJQsqaUBKTNV-1">
          <mxGeometry width="50" height="50" relative="1" as="geometry">
            <mxPoint x="150" y="190.32" as="sourcePoint" />
            <mxPoint x="210" y="190.32" as="targetPoint" />
          </mxGeometry>
        </mxCell>
        <mxCell id="BkZe_GpuJbEBKpTBHpC8-25" value="" style="shape=stencil(nVTbboMwDP0aHhs5NiHwOLHtP1ibrtFoQIFe9vczJGiL2m5rrbxwbB/7OCYZ1cOu6U2G0Ay9WY8ZPWeIx8bb5q1lGNmzC6DMhWSDPKCngGIpcDIZ0GH03Yc52c0Ys6zbGW/HyUsvGTxxzHSoXnfOcUHbuSHx/PAzWWMd58I5kEEo8hkbCl898+/NaHyCZvj6b1qZ0MI9tFQzcksK1dvOm3ffHdzmajNb27ZhYr903DfTLC8ci3vfHc23lFzoIi/LiswKdDqt9PquV1tIW+tSUqCiosf51gcfupQhWYtCapCoIqW8ynnGCINQJbHF6AWWQqsK8zJGU0qiIBrGNFpqg5qtivaIAMkKiOcsUwEoSMkyX7ZlEYAgNCpQMhWwAgFASuWFTiUgCaZRUqedc/j9l7f8oOnt/UE1r/WNxeMn49bKzmkXOz+j4ZmZgS8=);whiteSpace=wrap;html=1;strokeWidth=10;fillColor=none;strokeColor=#24B064;rotation=-90;" vertex="1" parent="WIyWlLk6GJQsqaUBKTNV-1">
          <mxGeometry x="1005" y="92.5" width="126.25" height="141.25" as="geometry" />
        </mxCell>
        <mxCell id="BkZe_GpuJbEBKpTBHpC8-30" value="" style="endArrow=none;html=1;rounded=0;strokeWidth=10;strokeColor=#24b064;" edge="1" parent="WIyWlLk6GJQsqaUBKTNV-1">
          <mxGeometry width="50" height="50" relative="1" as="geometry">
            <mxPoint x="950" y="292.5" as="sourcePoint" />
            <mxPoint x="1170" y="262.5" as="targetPoint" />
          </mxGeometry>
        </mxCell>
        <mxCell id="BkZe_GpuJbEBKpTBHpC8-41" value="" style="endArrow=none;html=1;rounded=0;strokeWidth=10;strokeColor=#24b064;fontFamily=Helvetica;fontSize=12;fontColor=default;" edge="1" parent="WIyWlLk6GJQsqaUBKTNV-1">
          <mxGeometry width="50" height="50" relative="1" as="geometry">
            <mxPoint x="1110" y="380" as="sourcePoint" />
            <mxPoint x="1100" y="330" as="targetPoint" />
            <Array as="points" />
          </mxGeometry>
        </mxCell>
        <mxCell id="BkZe_GpuJbEBKpTBHpC8-43" value="" style="shape=stencil(vZXdcoMgEIWfhltGlkiSy45N34MaUpkacNAk5u2Dgqn1JzN1sDPeeJb9WM4yLKJJmfFCIIh4WYi0QvQdAVy5kfwztzLYSOZEYHgT7ygFp94m1bIy+lvc5LHyWVJlwsiqidIDit7smuajSaqVshtKrcpfkV7cwrhUNjeqHSxym9z9H4bYCYXd4iwqYVyAOBXBx1JyKCxZr+AnK3TNIzJZyWQczIyhzQFdXs3kf/J4u5rJ4cg/rPA2b1fymSzH0sQqc88fTU7aiC+jL+o4WcxJ5rl7ZV9UXPDm/R0FuvBZX0XfpOGliV750UFyqXoQhhlpBgEsQaUX4woi3jiKAfaEMQ8jA1oNk8Pn7uUYt8nMt76m06u9TPZ4t6HdPfnLmYfASXWuRVaf6ZKdyXP9bdNGF6RV3RxvhQc=);whiteSpace=wrap;html=1;strokeWidth=10;fillColor=#24B064;strokeColor=#24B064;points=[[0,0,0,0,0],[1,1,0,0,0]];align=center;verticalAlign=middle;fontFamily=Helvetica;fontSize=12;fontColor=default;rotation=-180;" vertex="1" parent="WIyWlLk6GJQsqaUBKTNV-1">
          <mxGeometry x="175" y="186.54" width="130" height="105.96" as="geometry" />
        </mxCell>
        <mxCell id="BkZe_GpuJbEBKpTBHpC8-42" value="" style="shape=image;verticalLabelPosition=bottom;verticalAlign=top;imageAspect=0;aspect=fixed;image=data:image/svg+xml,PHN2ZyB4bWxucz0iaHR0cDovL3d3dy53My5vcmcvMjAwMC9zdmciIGlkPSJzdmc3MzYyIiB2ZXJzaW9uPSIxLjEiIHZpZXdCb3g9IjAgMCA3LjkzNzQ5NjIgMTUuODc1IiBoZWlnaHQ9IjE1Ljg3NW1tIiB3aWR0aD0iNy45Mzc0OTYybW0iPiYjeGE7ICAmI3hhOyAgICAmI3hhOyAgJiN4YTsgIDxkZWZzIGlkPSJkZWZzNzM1OSIvPiYjeGE7ICA8ZyB0cmFuc2Zvcm09InRyYW5zbGF0ZSgtMjIuNDg5NTg2LC05My45MjcwODMpIiBpZD0ibGF5ZXI1Ij4mI3hhOyAgICA8ZyBpZD0ibGF5ZXI4Ij4mI3hhOyAgICAgIDxwYXRoIGQ9Im0gMjYuNDU4MzMzLDk1LjI1IGEgMi42NDU4MzMzLDIuNjQ1ODMzMyAwIDAgMCAtMi42NDU4MzMsMi42NDU4MzMgMi42NDU4MzMzLDIuNjQ1ODMzMyAwIDAgMCAxLjMyMjkxNywyLjI5MTMzNyB2IDMuMzU0ODMgYSAyLjY0NTgzMzMsMi42NDU4MzMzIDAgMCAwIC0xLjMyMjkxNywyLjI5MTMzIDIuNjQ1ODMzMywyLjY0NTgzMzMgMCAwIDAgMi42NDU4MzMsMi42NDU4NCAyLjY0NTgzMzMsMi42NDU4MzMzIDAgMCAwIDIuNjQ1ODM0LC0yLjY0NTg0IDIuNjQ1ODMzMywyLjY0NTgzMzMgMCAwIDAgLTEuMzIyOTE3LC0yLjI5MTMzIHYgLTMuMzU0ODMgQSAyLjY0NTgzMzMsMi42NDU4MzMzIDAgMCAwIDI5LjEwNDE2Nyw5Ny44OTU4MzMgMi42NDU4MzMzLDIuNjQ1ODMzMyAwIDAgMCAyNi40NTgzMzMsOTUuMjUgWiIgc3R5bGU9ImZpbGw6I2ZmZmZmZjtzdHJva2U6IzAwMDAwMDtzdHJva2Utd2lkdGg6Mi42NDU4MztzdHJva2UtbGluZWNhcDpyb3VuZDtzdHJva2UtbWl0ZXJsaW1pdDo0O3N0cm9rZS1kYXNoYXJyYXk6bm9uZTtwYWludC1vcmRlcjpzdHJva2UgbWFya2VycyBmaWxsO3N0b3AtY29sb3I6IzAwMDAwMCIgaWQ9InBhdGgzNDQ3LTYtMjUiLz4mI3hhOyAgICA8L2c+JiN4YTsgIDwvZz4mI3hhOzwvc3ZnPg==;points=[[0.1,0.25,0,0,0],[0.1,0.75,0,0,0],[0.5,0,0,0,0],[0.5,1,0,0,0],[0.9,0.25,0,0,0],[0.9,0.75,0,0,0]];strokeColor=#24B064;strokeWidth=10;align=center;fontFamily=Helvetica;fontSize=12;fontColor=default;fillColor=none;rotation=-90;" vertex="1" parent="WIyWlLk6GJQsqaUBKTNV-1">
          <mxGeometry x="316.25" y="261.25" width="32.5" height="65" as="geometry" />
        </mxCell>
        <mxCell id="BkZe_GpuJbEBKpTBHpC8-44" value="" style="endArrow=none;html=1;rounded=0;strokeWidth=10;strokeColor=#24b064;fontFamily=Helvetica;fontSize=12;fontColor=default;exitX=0.979;exitY=0.675;exitDx=0;exitDy=0;exitPerimeter=0;" edge="1" parent="WIyWlLk6GJQsqaUBKTNV-1" source="BkZe_GpuJbEBKpTBHpC8-61">
          <mxGeometry width="50" height="50" relative="1" as="geometry">
            <mxPoint x="250" y="467.59" as="sourcePoint" />
            <mxPoint x="290" y="467.59" as="targetPoint" />
          </mxGeometry>
        </mxCell>
        <mxCell id="BkZe_GpuJbEBKpTBHpC8-45" value="" style="shape=stencil(vZXdcoMgEIWfhltGlkiSy45N34MaUpkacNAk5u2Dgqn1JzN1sDPeeJb9WM4yLKJJmfFCIIh4WYi0QvQdAVy5kfwztzLYSOZEYHgT7ygFp94m1bIy+lvc5LHyWVJlwsiqidIDit7smuajSaqVshtKrcpfkV7cwrhUNjeqHSxym9z9H4bYCYXd4iwqYVyAOBXBx1JyKCxZr+AnK3TNIzJZyWQczIyhzQFdXs3kf/J4u5rJ4cg/rPA2b1fymSzH0sQqc88fTU7aiC+jL+o4WcxJ5rl7ZV9UXPDm/R0FuvBZX0XfpOGliV750UFyqXoQhhlpBgEsQaUX4woi3jiKAfaEMQ8jA1oNk8Pn7uUYt8nMt76m06u9TPZ4t6HdPfnLmYfASXWuRVaf6ZKdyXP9bdNGF6RV3RxvhQc=);whiteSpace=wrap;html=1;strokeWidth=10;fillColor=none;strokeColor=#3d95fd;points=[[0,0,0,0,0],[1,1,0,0,0]];align=center;verticalAlign=middle;fontFamily=Helvetica;fontSize=12;fontColor=default;rotation=90;" vertex="1" parent="WIyWlLk6GJQsqaUBKTNV-1">
          <mxGeometry x="363.76" y="193.13" width="103.12" height="99.37" as="geometry" />
        </mxCell>
        <mxCell id="BkZe_GpuJbEBKpTBHpC8-46" value="" style="endArrow=none;html=1;rounded=0;strokeWidth=10;strokeColor=light-dark(#3d95fd, #9eb1ff);" edge="1" parent="WIyWlLk6GJQsqaUBKTNV-1">
          <mxGeometry width="50" height="50" relative="1" as="geometry">
            <mxPoint x="434" y="190" as="sourcePoint" />
            <mxPoint x="494" y="190" as="targetPoint" />
          </mxGeometry>
        </mxCell>
        <mxCell id="BkZe_GpuJbEBKpTBHpC8-50" value="&lt;b&gt;&lt;font style=&quot;font-size: 20px;&quot; data-font-src=&quot;https://fonts.googleapis.com/css?family=Maven+Pro&quot; face=&quot;Maven Pro&quot;&gt;QC/trimming&lt;/font&gt;&lt;/b&gt;" style="text;html=1;align=center;verticalAlign=middle;resizable=0;points=[];autosize=1;strokeColor=none;fillColor=none;fontFamily=Helvetica;fontSize=12;fontColor=default;" vertex="1" parent="WIyWlLk6GJQsqaUBKTNV-1">
          <mxGeometry x="255" y="219.51999999999998" width="150" height="40" as="geometry" />
        </mxCell>
        <mxCell id="BkZe_GpuJbEBKpTBHpC8-51" value="" style="endArrow=none;html=1;rounded=0;strokeWidth=10;strokeColor=light-dark(#63e5e8, #1a9251);fontFamily=Helvetica;fontSize=12;fontColor=default;entryX=0.5;entryY=1;entryDx=0;entryDy=0;" edge="1" parent="WIyWlLk6GJQsqaUBKTNV-1" source="BkZe_GpuJbEBKpTBHpC8-97" target="BkZe_GpuJbEBKpTBHpC8-88">
          <mxGeometry width="50" height="50" relative="1" as="geometry">
            <mxPoint x="330" y="1043.25" as="sourcePoint" />
            <mxPoint x="326.25" y="950" as="targetPoint" />
          </mxGeometry>
        </mxCell>
        <mxCell id="BkZe_GpuJbEBKpTBHpC8-52" value="" style="endArrow=none;html=1;rounded=0;strokeWidth=10;strokeColor=light-dark(#3d95fd, #1a9251);fontFamily=Helvetica;fontSize=12;fontColor=default;entryX=0.1;entryY=0.75;entryDx=0;entryDy=0;entryPerimeter=0;" edge="1" parent="WIyWlLk6GJQsqaUBKTNV-1" target="BkZe_GpuJbEBKpTBHpC8-96">
          <mxGeometry width="50" height="50" relative="1" as="geometry">
            <mxPoint x="1050" y="479.5" as="sourcePoint" />
            <mxPoint x="1051" y="390" as="targetPoint" />
          </mxGeometry>
        </mxCell>
        <mxCell id="BkZe_GpuJbEBKpTBHpC8-57" value="&lt;font style=&quot;font-size: 20px;&quot; face=&quot;Maven Pro&quot;&gt;&lt;b&gt;host Removal&lt;/b&gt;&lt;/font&gt;" style="text;html=1;align=center;verticalAlign=middle;resizable=0;points=[];autosize=1;strokeColor=none;fillColor=none;fontFamily=Helvetica;fontSize=12;fontColor=default;" vertex="1" parent="WIyWlLk6GJQsqaUBKTNV-1">
          <mxGeometry x="341.25" y="380" width="160" height="40" as="geometry" />
        </mxCell>
        <mxCell id="BkZe_GpuJbEBKpTBHpC8-58" value="" style="shape=stencil(nZPBkoMgDIafhisDARWPO273PVhLV2YtOGhb+/YFoR1ta2e7Dhe/JH9CEhCr+kZ2CgGRfafqAbFPBHCUTsvv1mPwliZCCpjxAgIK9BQpCAzhY5H2g7O/6qS3Q4rSplFOD8HKNoh8eJ9wWFVbY3xCbU2/sMzsXkxq42PJGMVITHJe/HVef68G5VKZkSL4+rMsXcjSd2RZ5cnaVVi1s079OHsw26fF7HTbxo69qLiToZcPhqt5b49q1iFMCJS85NmyVZi8astVq9VmplVgkolMcPofqfrgYl009Y9jSjkAT2L0Tm2E5FdiTgm5JU2Y4QwYyUVavpGl7eM4L4u8EMk7YYEFLYQo4f1L3+3z+enur43K85Vp+Xe2Nucp7GFRJhrf5gQu);whiteSpace=wrap;html=1;strokeWidth=10;fillColor=none;strokeColor=light-dark(#24b064, #be5d2b);align=center;verticalAlign=middle;fontFamily=Helvetica;fontSize=12;fontColor=default;rotation=90;" vertex="1" parent="WIyWlLk6GJQsqaUBKTNV-1">
          <mxGeometry x="950" y="320" width="50" height="60" as="geometry" />
        </mxCell>
        <mxCell id="BkZe_GpuJbEBKpTBHpC8-59" value="" style="shape=stencil(nVPBbsMgDP0ajkNgjzU7Tun2H6ylC1oKEaFt9vcjMZ2alkzdLC4828/m2TCs+0Z3hoHQfWc2keGaARx1sPq9TTAkT0MgcgWrZBWhJ0JBcvk0GqF9DP7TnOw25izrGhNsHL34ysRLihkP1hvvXCpovetnngt/ItPWpVwxEJmgIl90k3TrEv/eRBNmKIO3u2nl/2mxTsjSU7De+WA+gj+4bbGZnW1bUuyXjjs9annjOLv3/mguFOJzja6GVq7xo80hEJekZMXheRyuypSyyDlAOTrDwFFIEI/KPIi8JANmTQVXFSbLGbiY8be+peLV6qrpUhtQCIfyG7G47eeO71J5WpWFYaZvuLQGU9rNHk0ofd0J+AY=);whiteSpace=wrap;html=1;fillColor=none;strokeColor=#24B064;strokeWidth=10;align=center;verticalAlign=middle;fontFamily=Helvetica;fontSize=12;fontColor=default;rotation=-89;" vertex="1" parent="WIyWlLk6GJQsqaUBKTNV-1">
          <mxGeometry x="252.35" y="447.78" width="106.38" height="40.62" as="geometry" />
        </mxCell>
        <mxCell id="BkZe_GpuJbEBKpTBHpC8-60" value="" style="endArrow=none;html=1;rounded=0;strokeWidth=10;strokeColor=light-dark(#3d95fd, #1a9251);fontFamily=Helvetica;fontSize=12;fontColor=default;entryX=0;entryY=0.7;entryDx=0;entryDy=0;entryPerimeter=0;" edge="1" parent="WIyWlLk6GJQsqaUBKTNV-1" target="BkZe_GpuJbEBKpTBHpC8-64">
          <mxGeometry width="50" height="50" relative="1" as="geometry">
            <mxPoint x="374" y="467.59000000000003" as="sourcePoint" />
            <mxPoint x="400" y="468" as="targetPoint" />
          </mxGeometry>
        </mxCell>
        <mxCell id="BkZe_GpuJbEBKpTBHpC8-61" value="&lt;font style=&quot;font-size: 20px;&quot; face=&quot;Maven Pro&quot;&gt;&lt;b&gt;decontamination&lt;/b&gt;&lt;/font&gt;" style="text;html=1;align=center;verticalAlign=middle;resizable=0;points=[];autosize=1;strokeColor=none;fillColor=none;fontFamily=Helvetica;fontSize=12;fontColor=default;" vertex="1" parent="WIyWlLk6GJQsqaUBKTNV-1">
          <mxGeometry x="75" y="440" width="190" height="40" as="geometry" />
        </mxCell>
        <mxCell id="BkZe_GpuJbEBKpTBHpC8-63" value="" style="endArrow=none;html=1;rounded=0;strokeWidth=10;strokeColor=#24b064;fontFamily=Helvetica;fontSize=12;fontColor=default;" edge="1" parent="WIyWlLk6GJQsqaUBKTNV-1">
          <mxGeometry width="50" height="50" relative="1" as="geometry">
            <mxPoint x="985" y="52.5" as="sourcePoint" />
            <mxPoint x="1025" y="52.5" as="targetPoint" />
          </mxGeometry>
        </mxCell>
        <mxCell id="BkZe_GpuJbEBKpTBHpC8-64" value="&lt;font style=&quot;font-size: 20px;&quot; face=&quot;Maven Pro&quot;&gt;&lt;b&gt;normalization&lt;/b&gt;&lt;/font&gt;" style="text;html=1;align=center;verticalAlign=middle;resizable=0;points=[];autosize=1;strokeColor=none;fillColor=none;fontFamily=Helvetica;fontSize=12;fontColor=default;" vertex="1" parent="WIyWlLk6GJQsqaUBKTNV-1">
          <mxGeometry x="400" y="440" width="160" height="40" as="geometry" />
        </mxCell>
        <mxCell id="BkZe_GpuJbEBKpTBHpC8-66" value="" style="shape=stencil(nVPBbsMgDP0ajkNgjzU7Tun2H6ylC1oKEaFt9vcjMZ2alkzdLC4828/m2TCs+0Z3hoHQfWc2keGaARx1sPq9TTAkT0MgcgWrZBWhJ0JBcvk0GqF9DP7TnOw25izrGhNsHL34ysRLihkP1hvvXCpovetnngt/ItPWpVwxEJmgIl90k3TrEv/eRBNmKIO3u2nl/2mxTsjSU7De+WA+gj+4bbGZnW1bUuyXjjs9annjOLv3/mguFOJzja6GVq7xo80hEJekZMXheRyuypSyyDlAOTrDwFFIEI/KPIi8JANmTQVXFSbLGbiY8be+peLV6qrpUhtQCIfyG7G47eeO71J5WpWFYaZvuLQGU9rNHk0ofd0J+AY=);whiteSpace=wrap;html=1;fillColor=none;strokeColor=light-dark(#3d95fd, #1a9251);strokeWidth=10;align=center;verticalAlign=middle;fontFamily=Helvetica;fontSize=12;fontColor=default;rotation=90;" vertex="1" parent="WIyWlLk6GJQsqaUBKTNV-1">
          <mxGeometry x="298.62" y="447.78" width="106.38" height="40.62" as="geometry" />
        </mxCell>
        <mxCell id="BkZe_GpuJbEBKpTBHpC8-55" value="" style="shape=image;verticalLabelPosition=bottom;verticalAlign=top;imageAspect=0;aspect=fixed;image=data:image/svg+xml,PHN2ZyB4bWxucz0iaHR0cDovL3d3dy53My5vcmcvMjAwMC9zdmciIGlkPSJzdmc3MzYyIiB2ZXJzaW9uPSIxLjEiIHZpZXdCb3g9IjAgMCA3LjkzNzQ5NjcgNy45Mzc0OTYyIiBoZWlnaHQ9IjcuOTM3NDk2Mm1tIiB3aWR0aD0iNy45Mzc0OTY3bW0iPiYjeGE7ICAmI3hhOyAgICAmI3hhOyAgJiN4YTsgIDxkZWZzIGlkPSJkZWZzNzM1OSIvPiYjeGE7ICA8ZyB0cmFuc2Zvcm09InRyYW5zbGF0ZSgtMy45ODk0MzAzLC0zMy4wNzI5MjEpIiBpZD0ibGF5ZXI1Ij4mI3hhOyAgICA8ZyBpZD0ibGF5ZXI2Ij4mI3hhOyAgICAgIDxjaXJjbGUgcj0iMi42NDU4MzMzIiBjeT0iMzcuMDQxNjY4IiBjeD0iNy45NTgxNzg1IiBpZD0icGF0aDM0NDciIHN0eWxlPSJmaWxsOiNmZmZmZmY7c3Ryb2tlOiMwMDAwMDA7c3Ryb2tlLXdpZHRoOjIuNjQ1ODM7c3Ryb2tlLWxpbmVjYXA6cm91bmQ7c3Ryb2tlLW1pdGVybGltaXQ6NDtzdHJva2UtZGFzaGFycmF5Om5vbmU7cGFpbnQtb3JkZXI6c3Ryb2tlIG1hcmtlcnMgZmlsbDtzdG9wLWNvbG9yOiMwMDAwMDAiLz4mI3hhOyAgICA8L2c+JiN4YTsgIDwvZz4mI3hhOzwvc3ZnPg==;strokeColor=#24B064;strokeWidth=10;align=center;fontFamily=Helvetica;fontSize=12;fontColor=default;fillColor=none;" vertex="1" parent="WIyWlLk6GJQsqaUBKTNV-1">
          <mxGeometry x="316.25" y="390" width="30" height="30" as="geometry" />
        </mxCell>
        <mxCell id="BkZe_GpuJbEBKpTBHpC8-69" value="" style="group;strokeColor=#24B064;strokeWidth=10;align=center;verticalAlign=middle;fontFamily=Helvetica;fontSize=12;fontColor=default;fillColor=none;" vertex="1" connectable="0" parent="WIyWlLk6GJQsqaUBKTNV-1">
          <mxGeometry x="135" y="310.0000000000001" width="90" height="100" as="geometry" />
        </mxCell>
        <mxCell id="BkZe_GpuJbEBKpTBHpC8-70" value="" style="shape=image;aspect=fixed;image=data:image/svg+xml,PD94bWwgdmVyc2lvbj0iMS4wIiBlbmNvZGluZz0iVVRGLTgiIHN0YW5kYWxvbmU9Im5vIj8+CjwhLS0gQ3JlYXRlZCB3aXRoIElua3NjYXBlIChodHRwOi8vd3d3Lmlua3NjYXBlLm9yZy8pIC0tPgoKPHN2ZwogICB3aWR0aD0iMjMuODEyNTFtbSIKICAgaGVpZ2h0PSIyNi40NTgzNDltbSIKICAgdmlld0JveD0iMCAwIDIzLjgxMjUxIDI2LjQ1ODM0OSIKICAgdmVyc2lvbj0iMS4xIgogICBpZD0ic3ZnNzM2MiIKICAgeG1sbnM9Imh0dHA6Ly93d3cudzMub3JnLzIwMDAvc3ZnIgogICB4bWxuczpzdmc9Imh0dHA6Ly93d3cudzMub3JnLzIwMDAvc3ZnIj4KICA8ZGVmcwogICAgIGlkPSJkZWZzNzM1OSIgLz4KICA8ZwogICAgIGlkPSJsYXllcjEiCiAgICAgc3R5bGU9ImRpc3BsYXk6aW5saW5lIgogICAgIHRyYW5zZm9ybT0idHJhbnNsYXRlKDM3LjA0MTY2NSwtMTY2LjY4NzUpIj4KICAgIDxnCiAgICAgICBpZD0iZzMtNC05IgogICAgICAgdHJhbnNmb3JtPSJ0cmFuc2xhdGUoLTE5MC40OTk5OSw3MS40Mzc1MDUpIgogICAgICAgc3R5bGU9ImRpc3BsYXk6aW5saW5lIj4KICAgICAgPGcKICAgICAgICAgaWQ9ImcxODQ4OC01NC00MS05IgogICAgICAgICB0cmFuc2Zvcm09InRyYW5zbGF0ZSgyNi40NTgzMzIsMi42NDU4NDQpIj4KICAgICAgICA8cGF0aAogICAgICAgICAgIGlkPSJwYXRoNjI3Ni00LTQtNS0yIgogICAgICAgICAgIHN0eWxlPSJmaWxsOiNmZmZmZmY7c3Ryb2tlLXdpZHRoOjAuMjMwNzAyIgogICAgICAgICAgIGQ9Im0gMTMyLjI5MTY2LDkzLjkyNzA3MiB2IDIxLjE2NjY2OCBoIDE1Ljg3NTAxIFYgOTkuMjE4NzQ4IGwgLTUuMjkxNjgsLTUuMjkxNjc2IHoiIC8+CiAgICAgICAgPHBhdGgKICAgICAgICAgICBpZD0icGF0aDU4NjItMS00LTEiCiAgICAgICAgICAgZD0ibSAxNDkuNDg5NTgsOTcuODk1ODMyIGMgMCwtMC4yNjQ1NzYgLTAuMjY0NTgsLTAuNTI5MTY0IC0wLjUyOTE3LC0wLjc5Mzc1MiBsIC00LjQ5NzkxLC0zLjk2ODc0OCBjIC0wLjI2NDU4LC0wLjI2NDU4OCAtMC41MjkxNywtMC41MjkxNjQgLTAuODI3ODgsLTAuNTI5MTY0IGwgLTQuNzI4MzcsLTJlLTUgLTYuNjE0NTksMmUtNSBjIC0wLjc5Mzc1LDJlLTYgLTEuMzIyOTIsMC41MjkxNjQgLTEuMzIyOTIsMS4zMjI5MTYgdiAyMS4xNjY2NjYgYyAwLDAuNzkzNzUgMC41MjkxNywxLjMyMjkyIDEuMzIyOTIsMS4zMjI5MiBoIDcuOTM3NTEgNy45Mzc1IGMgMC43OTM3NCwwIDEuMzIyOTEsLTAuNTI5MTcgMS4zMjI5MSwtMS4zMjI5MiB6IG0gLTEuMzIyOTEsMTcuMTk3OTE4IEggMTMyLjI5MTY2IFYgOTMuOTI3MDg0IGggMTAuNTgzMzMgdiA0Ljc2MjUgYyAwLDAuMzE3NTA4IDAuMjAzNTMsMC41MjkxNjQgMC41MjkxNywwLjUyOTE2NCBoIDQuNzYyNTEgeiIKICAgICAgICAgICBzdHlsZT0ic3Ryb2tlLXdpZHRoOjAuMjMxNjciIC8+CiAgICAgICAgPHBhdGgKICAgICAgICAgICBpZD0icmVjdDE4MzQ3LTItNy04IgogICAgICAgICAgIHN0eWxlPSJmaWxsLXJ1bGU6ZXZlbm9kZDtzdHJva2Utd2lkdGg6MC4xMjIwMjc7cGFpbnQtb3JkZXI6ZmlsbCBtYXJrZXJzIHN0cm9rZSIKICAgICAgICAgICBkPSJtIDEzMS4wMTc1MiwxMDEuODY0NiBoIDE4LjQyMzI2IGMgMC43NTk5MywwIDEuMzcxNzEsMC40OTcwNiAxLjM3MTcxLDEuMTE0NSBsIDFlLTUsMi44NTQyMSAtMWUtNSwyLjg1NDI2IGMgMCwwLjYxNzQ0IC0wLjYxMTc4LDEuMTE0NSAtMS4zNzE3MSwxLjExNDUgaCAtMTguNDIzMjYgYyAtMC43NTk5MiwwIC0xLjM3MTcsLTAuNDk3MDYgLTEuMzcxNywtMS4xMTQ1IHYgLTIuODU0MjUgLTIuODU0MjIgYyAwLC0wLjYxNzQ0IDAuNjExNzgsLTEuMTE0NSAxLjM3MTcsLTEuMTE0NSB6IiAvPgogICAgICAgIDx0ZXh0CiAgICAgICAgICAgeG1sOnNwYWNlPSJwcmVzZXJ2ZSIKICAgICAgICAgICBzdHlsZT0iZm9udC13ZWlnaHQ6Ym9sZDtmb250LXNpemU6NS4yOTE2N3B4O2ZvbnQtZmFtaWx5OidNYXZlbiBQcm8nOy1pbmtzY2FwZS1mb250LXNwZWNpZmljYXRpb246J01hdmVuIFBybywgQm9sZCc7dGV4dC1hbGlnbjpjZW50ZXI7dGV4dC1vcmllbnRhdGlvbjp1cHJpZ2h0O3RleHQtYW5jaG9yOm1pZGRsZTtmaWxsOiNmZmZmZmY7ZmlsbC1vcGFjaXR5OjE7c3Ryb2tlOm5vbmU7c3Ryb2tlLXdpZHRoOjAuMjI3OTUxO3N0cm9rZS1saW5lY2FwOnJvdW5kO3N0cm9rZS1saW5lam9pbjptaXRlcjtzdHJva2UtbWl0ZXJsaW1pdDowLjY7c3Ryb2tlLWRhc2hhcnJheTpub25lO3N0cm9rZS1kYXNob2Zmc2V0OjIuMDAwMDE7c3Ryb2tlLW9wYWNpdHk6MTtwYWludC1vcmRlcjpmaWxsIG1hcmtlcnMgc3Ryb2tlO3N0b3AtY29sb3I6IzAwMDAwMCIKICAgICAgICAgICB4PSIxNDAuMzM4OTYiCiAgICAgICAgICAgeT0iMTA3LjIxMTgiCiAgICAgICAgICAgaWQ9InRleHQxODU2OS02LTgtNCI+PHRzcGFuCiAgICAgICAgICAgICBpZD0idHNwYW4xODU2Ny00Mi02LTEiCiAgICAgICAgICAgICBzdHlsZT0iZmlsbDojZmZmZmZmO2ZpbGwtb3BhY2l0eToxO3N0cm9rZTpub25lO3N0cm9rZS13aWR0aDowLjIyNzk1MSIKICAgICAgICAgICAgIHg9IjE0MC4zMzg5NiIKICAgICAgICAgICAgIHk9IjEwNy4yMTE4Ij5mYXN0cTwvdHNwYW4+PC90ZXh0PgogICAgICA8L2c+CiAgICAgIDxnCiAgICAgICAgIGlkPSJnMTg0ODgtNTQtOC02LTEiCiAgICAgICAgIHRyYW5zZm9ybT0idHJhbnNsYXRlKDIzLjgxMjUwMiw1LjI5MTY2OTUpIj4KICAgICAgICA8cGF0aAogICAgICAgICAgIGlkPSJwYXRoNjI3Ni00LTQtNi03LTUiCiAgICAgICAgICAgc3R5bGU9ImZpbGw6I2ZmZmZmZjtzdHJva2Utd2lkdGg6MC4yMzA3MDIiCiAgICAgICAgICAgZD0ibSAxMzIuMjkxNjYsOTMuOTI3MDcyIHYgMjEuMTY2NjY4IGggMTUuODc1MDEgViA5OS4yMTg3NDggbCAtNS4yOTE2OCwtNS4yOTE2NzYgeiIgLz4KICAgICAgICA8cGF0aAogICAgICAgICAgIGlkPSJwYXRoNTg2Mi0xLTEtMC02IgogICAgICAgICAgIGQ9Im0gMTQ5LjQ4OTU4LDk3Ljg5NTgzMiBjIDAsLTAuMjY0NTc2IC0wLjI2NDU4LC0wLjUyOTE2NCAtMC41MjkxNywtMC43OTM3NTIgbCAtNC40OTc5MSwtMy45Njg3NDggYyAtMC4yNjQ1OCwtMC4yNjQ1ODggLTAuNTI5MTcsLTAuNTI5MTY0IC0wLjgyNzg4LC0wLjUyOTE2NCBoIC0zLjQwNTQ1IC03LjkzNzUxIGMgLTAuNzkzNzUsMCAtMS4zMjI5MiwwLjUyOTE2NCAtMS4zMjI5MiwxLjMyMjkxNiB2IDIxLjE2NjY2NiBjIDAsMC43OTM3NSAwLjUyOTE3LDEuMzIyOTIgMS4zMjI5MiwxLjMyMjkyIGwgOS4yNjA0MiwtMmUtNSA2LjYxNDU5LDJlLTUgYyAwLjc5Mzc0LDAgMS4zMjI5MSwtMC41MjkxNyAxLjMyMjkxLC0xLjMyMjkyIHogbSAtMS4zMjI5MSwxNy4xOTc5MTggSCAxMzIuMjkxNjYgViA5My45MjcwODQgaCAxMC41ODMzMyB2IDQuNzYyNSBjIDAsMC4zMTc1MDggMC4yMDM1MywwLjUyOTE2NCAwLjUyOTE3LDAuNTI5MTY0IGggNC43NjI1MSB6IgogICAgICAgICAgIHN0eWxlPSJzdHJva2Utd2lkdGg6MC4yMzE2NyIgLz4KICAgICAgICA8cGF0aAogICAgICAgICAgIGlkPSJyZWN0MTgzNDctMi01LTAtMiIKICAgICAgICAgICBzdHlsZT0iZmlsbC1ydWxlOmV2ZW5vZGQ7c3Ryb2tlLXdpZHRoOjAuMTIyMDI3O3BhaW50LW9yZGVyOmZpbGwgbWFya2VycyBzdHJva2UiCiAgICAgICAgICAgZD0ibSAxMzEuMDE3NTIsMTAxLjg2NDYgaCAxOC40MjMyNiBjIDAuNzU5OTMsMCAxLjM3MTcxLDAuNDk3MDYgMS4zNzE3MSwxLjExNDUgdiAyLjg1NDIyIDIuODU0MjUgYyAwLDAuNjE3NDQgLTAuNjExNzgsMS4xMTQ1IC0xLjM3MTcxLDEuMTE0NSBoIC0xOC40MjMyNiBjIC0wLjc1OTkyLDAgLTEuMzcxNywtMC40OTcwNiAtMS4zNzE3LC0xLjExNDUgbCAxZS01LC01LjUwMDA4IC0xZS01LC0wLjIwODM5IGMgLTJlLTUsLTAuNjE3NDQgMC42MTE3OCwtMS4xMTQ1IDEuMzcxNywtMS4xMTQ1IHoiIC8+CiAgICAgIDwvZz4KICAgIDwvZz4KICA8L2c+Cjwvc3ZnPgo=;imageBackground=default;strokeColor=#24B064;strokeWidth=10;align=center;verticalAlign=middle;fontFamily=Helvetica;fontSize=12;fontColor=default;fillColor=none;" vertex="1" parent="BkZe_GpuJbEBKpTBHpC8-69">
          <mxGeometry width="90" height="100" as="geometry" />
        </mxCell>
        <mxCell id="BkZe_GpuJbEBKpTBHpC8-71" value="&lt;font style=&quot;font-size: 20px;&quot; color=&quot;#ffffff&quot; data-font-src=&quot;https://fonts.googleapis.com/css?family=Maven+Pro&quot; face=&quot;Maven Pro&quot;&gt;&lt;b&gt;bam&lt;/b&gt;&lt;/font&gt;" style="text;html=1;strokeColor=none;fillColor=none;align=center;verticalAlign=middle;whiteSpace=wrap;rounded=0;fontFamily=Helvetica;fontSize=12;fontColor=default;" vertex="1" parent="BkZe_GpuJbEBKpTBHpC8-69">
          <mxGeometry x="10" y="45" width="60" height="30" as="geometry" />
        </mxCell>
        <mxCell id="BkZe_GpuJbEBKpTBHpC8-72" value="" style="group;strokeColor=light-dark(#3d95fd, #1a9251);strokeWidth=10;align=center;verticalAlign=middle;fontFamily=Helvetica;fontSize=12;fontColor=default;fillColor=none;" vertex="1" connectable="0" parent="WIyWlLk6GJQsqaUBKTNV-1">
          <mxGeometry x="500" y="310.0000000000001" width="90" height="100" as="geometry" />
        </mxCell>
        <mxCell id="BkZe_GpuJbEBKpTBHpC8-73" value="" style="shape=image;aspect=fixed;image=data:image/svg+xml,PD94bWwgdmVyc2lvbj0iMS4wIiBlbmNvZGluZz0iVVRGLTgiIHN0YW5kYWxvbmU9Im5vIj8+CjwhLS0gQ3JlYXRlZCB3aXRoIElua3NjYXBlIChodHRwOi8vd3d3Lmlua3NjYXBlLm9yZy8pIC0tPgoKPHN2ZwogICB3aWR0aD0iMjMuODEyNTFtbSIKICAgaGVpZ2h0PSIyNi40NTgzNDltbSIKICAgdmlld0JveD0iMCAwIDIzLjgxMjUxIDI2LjQ1ODM0OSIKICAgdmVyc2lvbj0iMS4xIgogICBpZD0ic3ZnNzM2MiIKICAgeG1sbnM9Imh0dHA6Ly93d3cudzMub3JnLzIwMDAvc3ZnIgogICB4bWxuczpzdmc9Imh0dHA6Ly93d3cudzMub3JnLzIwMDAvc3ZnIj4KICA8ZGVmcwogICAgIGlkPSJkZWZzNzM1OSIgLz4KICA8ZwogICAgIGlkPSJsYXllcjEiCiAgICAgc3R5bGU9ImRpc3BsYXk6aW5saW5lIgogICAgIHRyYW5zZm9ybT0idHJhbnNsYXRlKDM3LjA0MTY2NSwtMTY2LjY4NzUpIj4KICAgIDxnCiAgICAgICBpZD0iZzMtNC05IgogICAgICAgdHJhbnNmb3JtPSJ0cmFuc2xhdGUoLTE5MC40OTk5OSw3MS40Mzc1MDUpIgogICAgICAgc3R5bGU9ImRpc3BsYXk6aW5saW5lIj4KICAgICAgPGcKICAgICAgICAgaWQ9ImcxODQ4OC01NC00MS05IgogICAgICAgICB0cmFuc2Zvcm09InRyYW5zbGF0ZSgyNi40NTgzMzIsMi42NDU4NDQpIj4KICAgICAgICA8cGF0aAogICAgICAgICAgIGlkPSJwYXRoNjI3Ni00LTQtNS0yIgogICAgICAgICAgIHN0eWxlPSJmaWxsOiNmZmZmZmY7c3Ryb2tlLXdpZHRoOjAuMjMwNzAyIgogICAgICAgICAgIGQ9Im0gMTMyLjI5MTY2LDkzLjkyNzA3MiB2IDIxLjE2NjY2OCBoIDE1Ljg3NTAxIFYgOTkuMjE4NzQ4IGwgLTUuMjkxNjgsLTUuMjkxNjc2IHoiIC8+CiAgICAgICAgPHBhdGgKICAgICAgICAgICBpZD0icGF0aDU4NjItMS00LTEiCiAgICAgICAgICAgZD0ibSAxNDkuNDg5NTgsOTcuODk1ODMyIGMgMCwtMC4yNjQ1NzYgLTAuMjY0NTgsLTAuNTI5MTY0IC0wLjUyOTE3LC0wLjc5Mzc1MiBsIC00LjQ5NzkxLC0zLjk2ODc0OCBjIC0wLjI2NDU4LC0wLjI2NDU4OCAtMC41MjkxNywtMC41MjkxNjQgLTAuODI3ODgsLTAuNTI5MTY0IGwgLTQuNzI4MzcsLTJlLTUgLTYuNjE0NTksMmUtNSBjIC0wLjc5Mzc1LDJlLTYgLTEuMzIyOTIsMC41MjkxNjQgLTEuMzIyOTIsMS4zMjI5MTYgdiAyMS4xNjY2NjYgYyAwLDAuNzkzNzUgMC41MjkxNywxLjMyMjkyIDEuMzIyOTIsMS4zMjI5MiBoIDcuOTM3NTEgNy45Mzc1IGMgMC43OTM3NCwwIDEuMzIyOTEsLTAuNTI5MTcgMS4zMjI5MSwtMS4zMjI5MiB6IG0gLTEuMzIyOTEsMTcuMTk3OTE4IEggMTMyLjI5MTY2IFYgOTMuOTI3MDg0IGggMTAuNTgzMzMgdiA0Ljc2MjUgYyAwLDAuMzE3NTA4IDAuMjAzNTMsMC41MjkxNjQgMC41MjkxNywwLjUyOTE2NCBoIDQuNzYyNTEgeiIKICAgICAgICAgICBzdHlsZT0ic3Ryb2tlLXdpZHRoOjAuMjMxNjciIC8+CiAgICAgICAgPHBhdGgKICAgICAgICAgICBpZD0icmVjdDE4MzQ3LTItNy04IgogICAgICAgICAgIHN0eWxlPSJmaWxsLXJ1bGU6ZXZlbm9kZDtzdHJva2Utd2lkdGg6MC4xMjIwMjc7cGFpbnQtb3JkZXI6ZmlsbCBtYXJrZXJzIHN0cm9rZSIKICAgICAgICAgICBkPSJtIDEzMS4wMTc1MiwxMDEuODY0NiBoIDE4LjQyMzI2IGMgMC43NTk5MywwIDEuMzcxNzEsMC40OTcwNiAxLjM3MTcxLDEuMTE0NSBsIDFlLTUsMi44NTQyMSAtMWUtNSwyLjg1NDI2IGMgMCwwLjYxNzQ0IC0wLjYxMTc4LDEuMTE0NSAtMS4zNzE3MSwxLjExNDUgaCAtMTguNDIzMjYgYyAtMC43NTk5MiwwIC0xLjM3MTcsLTAuNDk3MDYgLTEuMzcxNywtMS4xMTQ1IHYgLTIuODU0MjUgLTIuODU0MjIgYyAwLC0wLjYxNzQ0IDAuNjExNzgsLTEuMTE0NSAxLjM3MTcsLTEuMTE0NSB6IiAvPgogICAgICAgIDx0ZXh0CiAgICAgICAgICAgeG1sOnNwYWNlPSJwcmVzZXJ2ZSIKICAgICAgICAgICBzdHlsZT0iZm9udC13ZWlnaHQ6Ym9sZDtmb250LXNpemU6NS4yOTE2N3B4O2ZvbnQtZmFtaWx5OidNYXZlbiBQcm8nOy1pbmtzY2FwZS1mb250LXNwZWNpZmljYXRpb246J01hdmVuIFBybywgQm9sZCc7dGV4dC1hbGlnbjpjZW50ZXI7dGV4dC1vcmllbnRhdGlvbjp1cHJpZ2h0O3RleHQtYW5jaG9yOm1pZGRsZTtmaWxsOiNmZmZmZmY7ZmlsbC1vcGFjaXR5OjE7c3Ryb2tlOm5vbmU7c3Ryb2tlLXdpZHRoOjAuMjI3OTUxO3N0cm9rZS1saW5lY2FwOnJvdW5kO3N0cm9rZS1saW5lam9pbjptaXRlcjtzdHJva2UtbWl0ZXJsaW1pdDowLjY7c3Ryb2tlLWRhc2hhcnJheTpub25lO3N0cm9rZS1kYXNob2Zmc2V0OjIuMDAwMDE7c3Ryb2tlLW9wYWNpdHk6MTtwYWludC1vcmRlcjpmaWxsIG1hcmtlcnMgc3Ryb2tlO3N0b3AtY29sb3I6IzAwMDAwMCIKICAgICAgICAgICB4PSIxNDAuMzM4OTYiCiAgICAgICAgICAgeT0iMTA3LjIxMTgiCiAgICAgICAgICAgaWQ9InRleHQxODU2OS02LTgtNCI+PHRzcGFuCiAgICAgICAgICAgICBpZD0idHNwYW4xODU2Ny00Mi02LTEiCiAgICAgICAgICAgICBzdHlsZT0iZmlsbDojZmZmZmZmO2ZpbGwtb3BhY2l0eToxO3N0cm9rZTpub25lO3N0cm9rZS13aWR0aDowLjIyNzk1MSIKICAgICAgICAgICAgIHg9IjE0MC4zMzg5NiIKICAgICAgICAgICAgIHk9IjEwNy4yMTE4Ij5mYXN0cTwvdHNwYW4+PC90ZXh0PgogICAgICA8L2c+CiAgICAgIDxnCiAgICAgICAgIGlkPSJnMTg0ODgtNTQtOC02LTEiCiAgICAgICAgIHRyYW5zZm9ybT0idHJhbnNsYXRlKDIzLjgxMjUwMiw1LjI5MTY2OTUpIj4KICAgICAgICA8cGF0aAogICAgICAgICAgIGlkPSJwYXRoNjI3Ni00LTQtNi03LTUiCiAgICAgICAgICAgc3R5bGU9ImZpbGw6I2ZmZmZmZjtzdHJva2Utd2lkdGg6MC4yMzA3MDIiCiAgICAgICAgICAgZD0ibSAxMzIuMjkxNjYsOTMuOTI3MDcyIHYgMjEuMTY2NjY4IGggMTUuODc1MDEgViA5OS4yMTg3NDggbCAtNS4yOTE2OCwtNS4yOTE2NzYgeiIgLz4KICAgICAgICA8cGF0aAogICAgICAgICAgIGlkPSJwYXRoNTg2Mi0xLTEtMC02IgogICAgICAgICAgIGQ9Im0gMTQ5LjQ4OTU4LDk3Ljg5NTgzMiBjIDAsLTAuMjY0NTc2IC0wLjI2NDU4LC0wLjUyOTE2NCAtMC41MjkxNywtMC43OTM3NTIgbCAtNC40OTc5MSwtMy45Njg3NDggYyAtMC4yNjQ1OCwtMC4yNjQ1ODggLTAuNTI5MTcsLTAuNTI5MTY0IC0wLjgyNzg4LC0wLjUyOTE2NCBoIC0zLjQwNTQ1IC03LjkzNzUxIGMgLTAuNzkzNzUsMCAtMS4zMjI5MiwwLjUyOTE2NCAtMS4zMjI5MiwxLjMyMjkxNiB2IDIxLjE2NjY2NiBjIDAsMC43OTM3NSAwLjUyOTE3LDEuMzIyOTIgMS4zMjI5MiwxLjMyMjkyIGwgOS4yNjA0MiwtMmUtNSA2LjYxNDU5LDJlLTUgYyAwLjc5Mzc0LDAgMS4zMjI5MSwtMC41MjkxNyAxLjMyMjkxLC0xLjMyMjkyIHogbSAtMS4zMjI5MSwxNy4xOTc5MTggSCAxMzIuMjkxNjYgViA5My45MjcwODQgaCAxMC41ODMzMyB2IDQuNzYyNSBjIDAsMC4zMTc1MDggMC4yMDM1MywwLjUyOTE2NCAwLjUyOTE3LDAuNTI5MTY0IGggNC43NjI1MSB6IgogICAgICAgICAgIHN0eWxlPSJzdHJva2Utd2lkdGg6MC4yMzE2NyIgLz4KICAgICAgICA8cGF0aAogICAgICAgICAgIGlkPSJyZWN0MTgzNDctMi01LTAtMiIKICAgICAgICAgICBzdHlsZT0iZmlsbC1ydWxlOmV2ZW5vZGQ7c3Ryb2tlLXdpZHRoOjAuMTIyMDI3O3BhaW50LW9yZGVyOmZpbGwgbWFya2VycyBzdHJva2UiCiAgICAgICAgICAgZD0ibSAxMzEuMDE3NTIsMTAxLjg2NDYgaCAxOC40MjMyNiBjIDAuNzU5OTMsMCAxLjM3MTcxLDAuNDk3MDYgMS4zNzE3MSwxLjExNDUgdiAyLjg1NDIyIDIuODU0MjUgYyAwLDAuNjE3NDQgLTAuNjExNzgsMS4xMTQ1IC0xLjM3MTcxLDEuMTE0NSBoIC0xOC40MjMyNiBjIC0wLjc1OTkyLDAgLTEuMzcxNywtMC40OTcwNiAtMS4zNzE3LC0xLjExNDUgbCAxZS01LC01LjUwMDA4IC0xZS01LC0wLjIwODM5IGMgLTJlLTUsLTAuNjE3NDQgMC42MTE3OCwtMS4xMTQ1IDEuMzcxNywtMS4xMTQ1IHoiIC8+CiAgICAgIDwvZz4KICAgIDwvZz4KICA8L2c+Cjwvc3ZnPgo=;imageBackground=default;strokeColor=#24B064;strokeWidth=10;align=center;verticalAlign=middle;fontFamily=Helvetica;fontSize=12;fontColor=default;fillColor=none;" vertex="1" parent="BkZe_GpuJbEBKpTBHpC8-72">
          <mxGeometry width="90" height="100" as="geometry" />
        </mxCell>
        <mxCell id="BkZe_GpuJbEBKpTBHpC8-74" value="&lt;font style=&quot;font-size: 20px;&quot; color=&quot;#ffffff&quot; data-font-src=&quot;https://fonts.googleapis.com/css?family=Maven+Pro&quot; face=&quot;Maven Pro&quot;&gt;&lt;b&gt;bam&lt;/b&gt;&lt;/font&gt;" style="text;html=1;strokeColor=none;fillColor=none;align=center;verticalAlign=middle;whiteSpace=wrap;rounded=0;fontFamily=Helvetica;fontSize=12;fontColor=default;" vertex="1" parent="BkZe_GpuJbEBKpTBHpC8-72">
          <mxGeometry x="10" y="45" width="60" height="30" as="geometry" />
        </mxCell>
        <mxCell id="BkZe_GpuJbEBKpTBHpC8-75" value="" style="shape=image;verticalLabelPosition=bottom;verticalAlign=top;imageAspect=0;aspect=fixed;image=data:image/svg+xml,PHN2ZyB4bWxucz0iaHR0cDovL3d3dy53My5vcmcvMjAwMC9zdmciIGlkPSJzdmc3MzYyIiB2ZXJzaW9uPSIxLjEiIHZpZXdCb3g9IjAgMCA3LjkzNzQ5NjcgNy45Mzc0OTYyIiBoZWlnaHQ9IjcuOTM3NDk2Mm1tIiB3aWR0aD0iNy45Mzc0OTY3bW0iPiYjeGE7ICAmI3hhOyAgICAmI3hhOyAgJiN4YTsgIDxkZWZzIGlkPSJkZWZzNzM1OSIvPiYjeGE7ICA8ZyB0cmFuc2Zvcm09InRyYW5zbGF0ZSgtMy45ODk0MzAzLC0zMy4wNzI5MjEpIiBpZD0ibGF5ZXI1Ij4mI3hhOyAgICA8ZyBpZD0ibGF5ZXI2Ij4mI3hhOyAgICAgIDxjaXJjbGUgcj0iMi42NDU4MzMzIiBjeT0iMzcuMDQxNjY4IiBjeD0iNy45NTgxNzg1IiBpZD0icGF0aDM0NDciIHN0eWxlPSJmaWxsOiNmZmZmZmY7c3Ryb2tlOiMwMDAwMDA7c3Ryb2tlLXdpZHRoOjIuNjQ1ODM7c3Ryb2tlLWxpbmVjYXA6cm91bmQ7c3Ryb2tlLW1pdGVybGltaXQ6NDtzdHJva2UtZGFzaGFycmF5Om5vbmU7cGFpbnQtb3JkZXI6c3Ryb2tlIG1hcmtlcnMgZmlsbDtzdG9wLWNvbG9yOiMwMDAwMDAiLz4mI3hhOyAgICA8L2c+JiN4YTsgIDwvZz4mI3hhOzwvc3ZnPg==;strokeColor=#24B064;strokeWidth=10;align=center;fontFamily=Helvetica;fontSize=12;fontColor=default;fillColor=none;" vertex="1" parent="WIyWlLk6GJQsqaUBKTNV-1">
          <mxGeometry x="315" y="520" width="30" height="30" as="geometry" />
        </mxCell>
        <mxCell id="BkZe_GpuJbEBKpTBHpC8-76" value="&lt;font style=&quot;font-size: 20px;&quot; face=&quot;Maven Pro&quot;&gt;&lt;b&gt;non-bee reads&lt;/b&gt;&lt;/font&gt;" style="text;html=1;align=center;verticalAlign=middle;resizable=0;points=[];autosize=1;strokeColor=none;fillColor=none;fontFamily=Helvetica;fontSize=12;fontColor=default;" vertex="1" parent="WIyWlLk6GJQsqaUBKTNV-1">
          <mxGeometry x="340" y="515" width="160" height="40" as="geometry" />
        </mxCell>
        <mxCell id="BkZe_GpuJbEBKpTBHpC8-77" value="" style="shape=stencil(vZXdcoMgEIWfhltGlkiSy45N34MaUpkacNAk5u2Dgqn1JzN1sDPeeJb9WM4yLKJJmfFCIIh4WYi0QvQdAVy5kfwztzLYSOZEYHgT7ygFp94m1bIy+lvc5LHyWVJlwsiqidIDit7smuajSaqVshtKrcpfkV7cwrhUNjeqHSxym9z9H4bYCYXd4iwqYVyAOBXBx1JyKCxZr+AnK3TNIzJZyWQczIyhzQFdXs3kf/J4u5rJ4cg/rPA2b1fymSzH0sQqc88fTU7aiC+jL+o4WcxJ5rl7ZV9UXPDm/R0FuvBZX0XfpOGliV750UFyqXoQhhlpBgEsQaUX4woi3jiKAfaEMQ8jA1oNk8Pn7uUYt8nMt76m06u9TPZ4t6HdPfnLmYfASXWuRVaf6ZKdyXP9bdNGF6RV3RxvhQc=);whiteSpace=wrap;html=1;strokeWidth=10;fillColor=none;strokeColor=#3d95fd;points=[[0,0,0,0,0],[1,1,0,0,0]];align=center;verticalAlign=middle;fontFamily=Helvetica;fontSize=12;fontColor=default;rotation=-180;" vertex="1" parent="WIyWlLk6GJQsqaUBKTNV-1">
          <mxGeometry x="330" y="550" width="75" height="75" as="geometry" />
        </mxCell>
        <mxCell id="BkZe_GpuJbEBKpTBHpC8-78" value="" style="shape=stencil(vZXdcoMgEIWfhltGlkiSy45N34MaUpkacNAk5u2Dgqn1JzN1sDPeeJb9WM4yLKJJmfFCIIh4WYi0QvQdAVy5kfwztzLYSOZEYHgT7ygFp94m1bIy+lvc5LHyWVJlwsiqidIDit7smuajSaqVshtKrcpfkV7cwrhUNjeqHSxym9z9H4bYCYXd4iwqYVyAOBXBx1JyKCxZr+AnK3TNIzJZyWQczIyhzQFdXs3kf/J4u5rJ4cg/rPA2b1fymSzH0sQqc88fTU7aiC+jL+o4WcxJ5rl7ZV9UXPDm/R0FuvBZX0XfpOGliV750UFyqXoQhhlpBgEsQaUX4woi3jiKAfaEMQ8jA1oNk8Pn7uUYt8nMt76m06u9TPZ4t6HdPfnLmYfASXWuRVaf6ZKdyXP9bdNGF6RV3RxvhQc=);whiteSpace=wrap;html=1;strokeWidth=10;fillColor=none;strokeColor=#3d95fd;points=[[0,0,0,0,0],[1,1,0,0,0]];align=center;verticalAlign=middle;fontFamily=Helvetica;fontSize=12;fontColor=default;rotation=0;" vertex="1" parent="WIyWlLk6GJQsqaUBKTNV-1">
          <mxGeometry x="405" y="625" width="75" height="75" as="geometry" />
        </mxCell>
        <mxCell id="BkZe_GpuJbEBKpTBHpC8-80" value="" style="endArrow=none;html=1;rounded=0;strokeWidth=10;strokeColor=light-dark(#3d95fd, #1a9251);fontFamily=Helvetica;fontSize=12;fontColor=default;" edge="1" parent="WIyWlLk6GJQsqaUBKTNV-1">
          <mxGeometry width="50" height="50" relative="1" as="geometry">
            <mxPoint x="480" y="690" as="sourcePoint" />
            <mxPoint x="520" y="690" as="targetPoint" />
          </mxGeometry>
        </mxCell>
        <mxCell id="BkZe_GpuJbEBKpTBHpC8-81" value="&lt;font style=&quot;font-size: 20px;&quot; face=&quot;Maven Pro&quot;&gt;&lt;b&gt;assembly&lt;/b&gt;&lt;/font&gt;" style="text;html=1;align=center;verticalAlign=middle;resizable=0;points=[];autosize=1;strokeColor=none;fillColor=none;fontFamily=Helvetica;fontSize=12;fontColor=default;" vertex="1" parent="WIyWlLk6GJQsqaUBKTNV-1">
          <mxGeometry x="514" y="670" width="110" height="40" as="geometry" />
        </mxCell>
        <mxCell id="BkZe_GpuJbEBKpTBHpC8-82" value="" style="endArrow=none;html=1;rounded=0;strokeWidth=10;strokeColor=light-dark(#3d95fd, #1a9251);fontFamily=Helvetica;fontSize=12;fontColor=default;entryX=0.1;entryY=0.75;entryDx=0;entryDy=0;entryPerimeter=0;" edge="1" parent="WIyWlLk6GJQsqaUBKTNV-1">
          <mxGeometry width="50" height="50" relative="1" as="geometry">
            <mxPoint x="480" y="840" as="sourcePoint" />
            <mxPoint x="480" y="700" as="targetPoint" />
          </mxGeometry>
        </mxCell>
        <mxCell id="BkZe_GpuJbEBKpTBHpC8-83" value="" style="endArrow=none;html=1;rounded=0;strokeWidth=10;strokeColor=light-dark(#3d95fd, #1a9251);fontFamily=Helvetica;fontSize=12;fontColor=default;" edge="1" parent="WIyWlLk6GJQsqaUBKTNV-1">
          <mxGeometry width="50" height="50" relative="1" as="geometry">
            <mxPoint x="480" y="750" as="sourcePoint" />
            <mxPoint x="520" y="750" as="targetPoint" />
          </mxGeometry>
        </mxCell>
        <mxCell id="BkZe_GpuJbEBKpTBHpC8-84" value="&lt;font style=&quot;font-size: 20px;&quot; face=&quot;Maven Pro&quot;&gt;&lt;b&gt;binning&lt;/b&gt;&lt;/font&gt;" style="text;html=1;align=center;verticalAlign=middle;resizable=0;points=[];autosize=1;strokeColor=none;fillColor=none;fontFamily=Helvetica;fontSize=12;fontColor=default;" vertex="1" parent="WIyWlLk6GJQsqaUBKTNV-1">
          <mxGeometry x="510" y="730" width="100" height="40" as="geometry" />
        </mxCell>
        <mxCell id="BkZe_GpuJbEBKpTBHpC8-85" value="" style="endArrow=none;html=1;rounded=0;strokeWidth=10;strokeColor=light-dark(#3d95fd, #1a9251);fontFamily=Helvetica;fontSize=12;fontColor=default;" edge="1" parent="WIyWlLk6GJQsqaUBKTNV-1">
          <mxGeometry width="50" height="50" relative="1" as="geometry">
            <mxPoint x="480" y="810" as="sourcePoint" />
            <mxPoint x="520" y="810" as="targetPoint" />
          </mxGeometry>
        </mxCell>
        <mxCell id="BkZe_GpuJbEBKpTBHpC8-86" value="&lt;font style=&quot;font-size: 20px;&quot; face=&quot;Maven Pro&quot;&gt;&lt;b&gt;taxonomy&lt;/b&gt;&lt;/font&gt;" style="text;html=1;align=center;verticalAlign=middle;resizable=0;points=[];autosize=1;strokeColor=none;fillColor=none;fontFamily=Helvetica;fontSize=12;fontColor=default;" vertex="1" parent="WIyWlLk6GJQsqaUBKTNV-1">
          <mxGeometry x="510" y="790" width="120" height="40" as="geometry" />
        </mxCell>
        <mxCell id="BkZe_GpuJbEBKpTBHpC8-87" value="" style="shape=stencil(vZXdcoMgEIWfhltGlkiSy45N34MaUpkacNAk5u2Dgqn1JzN1sDPeeJb9WM4yLKJJmfFCIIh4WYi0QvQdAVy5kfwztzLYSOZEYHgT7ygFp94m1bIy+lvc5LHyWVJlwsiqidIDit7smuajSaqVshtKrcpfkV7cwrhUNjeqHSxym9z9H4bYCYXd4iwqYVyAOBXBx1JyKCxZr+AnK3TNIzJZyWQczIyhzQFdXs3kf/J4u5rJ4cg/rPA2b1fymSzH0sQqc88fTU7aiC+jL+o4WcxJ5rl7ZV9UXPDm/R0FuvBZX0XfpOGliV750UFyqXoQhhlpBgEsQaUX4woi3jiKAfaEMQ8jA1oNk8Pn7uUYt8nMt76m06u9TPZ4t6HdPfnLmYfASXWuRVaf6ZKdyXP9bdNGF6RV3RxvhQc=);whiteSpace=wrap;html=1;strokeWidth=10;fillColor=none;strokeColor=#3d95fd;points=[[0,0,0,0,0],[1,1,0,0,0]];align=center;verticalAlign=middle;fontFamily=Helvetica;fontSize=12;fontColor=default;rotation=90;" vertex="1" parent="WIyWlLk6GJQsqaUBKTNV-1">
          <mxGeometry x="365.63" y="800.63" width="85" height="143.75" as="geometry" />
        </mxCell>
        <mxCell id="BkZe_GpuJbEBKpTBHpC8-88" value="" style="shape=image;verticalLabelPosition=bottom;verticalAlign=top;imageAspect=0;aspect=fixed;image=data:image/svg+xml,PHN2ZyB4bWxucz0iaHR0cDovL3d3dy53My5vcmcvMjAwMC9zdmciIGlkPSJzdmc3MzYyIiB2ZXJzaW9uPSIxLjEiIHZpZXdCb3g9IjAgMCA3LjkzNzQ5NjcgNy45Mzc0OTYyIiBoZWlnaHQ9IjcuOTM3NDk2Mm1tIiB3aWR0aD0iNy45Mzc0OTY3bW0iPiYjeGE7ICAmI3hhOyAgICAmI3hhOyAgJiN4YTsgIDxkZWZzIGlkPSJkZWZzNzM1OSIvPiYjeGE7ICA8ZyB0cmFuc2Zvcm09InRyYW5zbGF0ZSgtMy45ODk0MzAzLC0zMy4wNzI5MjEpIiBpZD0ibGF5ZXI1Ij4mI3hhOyAgICA8ZyBpZD0ibGF5ZXI2Ij4mI3hhOyAgICAgIDxjaXJjbGUgcj0iMi42NDU4MzMzIiBjeT0iMzcuMDQxNjY4IiBjeD0iNy45NTgxNzg1IiBpZD0icGF0aDM0NDciIHN0eWxlPSJmaWxsOiNmZmZmZmY7c3Ryb2tlOiMwMDAwMDA7c3Ryb2tlLXdpZHRoOjIuNjQ1ODM7c3Ryb2tlLWxpbmVjYXA6cm91bmQ7c3Ryb2tlLW1pdGVybGltaXQ6NDtzdHJva2UtZGFzaGFycmF5Om5vbmU7cGFpbnQtb3JkZXI6c3Ryb2tlIG1hcmtlcnMgZmlsbDtzdG9wLWNvbG9yOiMwMDAwMDAiLz4mI3hhOyAgICA8L2c+JiN4YTsgIDwvZz4mI3hhOzwvc3ZnPg==;strokeColor=#24B064;strokeWidth=10;align=center;fontFamily=Helvetica;fontSize=12;fontColor=default;fillColor=none;" vertex="1" parent="WIyWlLk6GJQsqaUBKTNV-1">
          <mxGeometry x="315" y="900" width="30" height="30" as="geometry" />
        </mxCell>
        <mxCell id="BkZe_GpuJbEBKpTBHpC8-89" value="&lt;font style=&quot;font-size: 20px;&quot; face=&quot;Maven Pro&quot;&gt;&lt;b&gt;annotated MAGs &lt;br&gt;+ unbinned&lt;/b&gt;&lt;/font&gt;" style="text;html=1;align=center;verticalAlign=middle;resizable=0;points=[];autosize=1;strokeColor=none;fillColor=none;fontFamily=Helvetica;fontSize=12;fontColor=default;" vertex="1" parent="WIyWlLk6GJQsqaUBKTNV-1">
          <mxGeometry x="341.25" y="920" width="180" height="60" as="geometry" />
        </mxCell>
        <mxCell id="BkZe_GpuJbEBKpTBHpC8-92" value="" style="endArrow=none;html=1;rounded=0;strokeWidth=10;strokeColor=light-dark(#24b064, #1a9251);fontFamily=Helvetica;fontSize=12;fontColor=default;entryX=0.1;entryY=0.75;entryDx=0;entryDy=0;entryPerimeter=0;exitX=0.5;exitY=0;exitDx=0;exitDy=0;" edge="1" parent="WIyWlLk6GJQsqaUBKTNV-1" source="BkZe_GpuJbEBKpTBHpC8-88">
          <mxGeometry width="50" height="50" relative="1" as="geometry">
            <mxPoint x="329" y="690" as="sourcePoint" />
            <mxPoint x="329" y="550" as="targetPoint" />
          </mxGeometry>
        </mxCell>
        <mxCell id="BkZe_GpuJbEBKpTBHpC8-95" value="&lt;font style=&quot;font-size: 20px;&quot; face=&quot;Maven Pro&quot;&gt;&lt;b&gt;mapping RNA reads&lt;/b&gt;&lt;/font&gt;" style="text;html=1;align=center;verticalAlign=middle;resizable=0;points=[];autosize=1;strokeColor=none;fillColor=none;fontFamily=Helvetica;fontSize=12;fontColor=default;rotation=-90;" vertex="1" parent="WIyWlLk6GJQsqaUBKTNV-1">
          <mxGeometry x="190" y="730" width="210" height="40" as="geometry" />
        </mxCell>
        <mxCell id="BkZe_GpuJbEBKpTBHpC8-96" value="" style="shape=stencil(nVPBbsMgDP0ajkNgjzU7Tun2H6ylC1oKEaFt9vcjMZ2alkzdLC4828/m2TCs+0Z3hoHQfWc2keGaARx1sPq9TTAkT0MgcgWrZBWhJ0JBcvk0GqF9DP7TnOw25izrGhNsHL34ysRLihkP1hvvXCpovetnngt/ItPWpVwxEJmgIl90k3TrEv/eRBNmKIO3u2nl/2mxTsjSU7De+WA+gj+4bbGZnW1bUuyXjjs9annjOLv3/mguFOJzja6GVq7xo80hEJekZMXheRyuypSyyDlAOTrDwFFIEI/KPIi8JANmTQVXFSbLGbiY8be+peLV6qrpUhtQCIfyG7G47eeO71J5WpWFYaZvuLQGU9rNHk0ofd0J+AY=);whiteSpace=wrap;html=1;fillColor=none;strokeColor=#63e5e8;strokeWidth=10;align=center;verticalAlign=middle;fontFamily=Helvetica;fontSize=12;fontColor=default;" vertex="1" parent="WIyWlLk6GJQsqaUBKTNV-1">
          <mxGeometry x="1021" y="385" width="60" height="10" as="geometry" />
        </mxCell>
        <mxCell id="BkZe_GpuJbEBKpTBHpC8-98" value="" style="endArrow=none;html=1;rounded=0;strokeWidth=10;strokeColor=light-dark(#63e5e8, #1a9251);fontFamily=Helvetica;fontSize=12;fontColor=default;entryX=0.5;entryY=1;entryDx=0;entryDy=0;" edge="1" parent="WIyWlLk6GJQsqaUBKTNV-1" target="BkZe_GpuJbEBKpTBHpC8-97">
          <mxGeometry width="50" height="50" relative="1" as="geometry">
            <mxPoint x="330" y="1043.25" as="sourcePoint" />
            <mxPoint x="330" y="930" as="targetPoint" />
          </mxGeometry>
        </mxCell>
        <mxCell id="BkZe_GpuJbEBKpTBHpC8-97" value="" style="shape=image;verticalLabelPosition=bottom;verticalAlign=top;imageAspect=0;aspect=0;image=data:image/svg+xml,PHN2ZyB4bWxucz0iaHR0cDovL3d3dy53My5vcmcvMjAwMC9zdmciIGlkPSJzdmc3MzYyIiB2ZXJzaW9uPSIxLjEiIHZpZXdCb3g9IjAgMCAyLjY0NTgyODIgNy45Mzc1IiBoZWlnaHQ9IjcuOTM3NW1tIiB3aWR0aD0iMi42NDU4MjgybW0iPiYjeGE7ICA8ZGVmcyBpZD0iZGVmczczNTkiLz4mI3hhOyAgPGcgdHJhbnNmb3JtPSJ0cmFuc2xhdGUoLTEwOC40NzkxNiwtNTIuOTE2NjY2KSIgaWQ9ImxheWVyOSI+JiN4YTsgICAgPHBhdGggaWQ9InBhdGgyNTAwLTUtMjItMi03IiBkPSJtIDEwOS44MDIwOCw1Mi45MTY2NjYgdiA3LjkzNzUiIHN0eWxlPSJmaWxsOm5vbmU7c3Ryb2tlOiMwMDAwMDA7c3Ryb2tlLXdpZHRoOjIuNjQ1ODM7c3Ryb2tlLWxpbmVjYXA6YnV0dDtzdHJva2UtbGluZWpvaW46bWl0ZXI7c3Ryb2tlLW1pdGVybGltaXQ6NDtzdHJva2UtZGFzaGFycmF5Om5vbmU7c3Ryb2tlLW9wYWNpdHk6MSIvPiYjeGE7ICA8L2c+JiN4YTs8L3N2Zz4=;points=[[0,0,0,0,0],[0,0.25,0,0,0],[0,0.5,0,0,0],[0,0.75,0,0,0],[0,1,0,0,0],[1,0,0,0,0],[1,0.25,0,0,0],[1,0.5,0,0,0],[1,0.75,0,0,0],[1,1,0,0,0]];strokeColor=#24B064;strokeWidth=10;align=center;fontFamily=Helvetica;fontSize=12;fontColor=default;fillColor=none;rotation=90;" vertex="1" parent="WIyWlLk6GJQsqaUBKTNV-1">
          <mxGeometry x="325" y="1030" width="10" height="30" as="geometry" />
        </mxCell>
        <mxCell id="BkZe_GpuJbEBKpTBHpC8-99" value="" style="group;strokeColor=light-dark(#63e5e8, #1a9251);strokeWidth=10;align=center;verticalAlign=middle;fontFamily=Helvetica;fontSize=12;fontColor=default;fillColor=none;" vertex="1" connectable="0" parent="WIyWlLk6GJQsqaUBKTNV-1">
          <mxGeometry x="280" y="1060" width="100" height="110" as="geometry" />
        </mxCell>
        <mxCell id="BkZe_GpuJbEBKpTBHpC8-100" value="" style="shape=image;aspect=fixed;image=data:image/svg+xml,PD94bWwgdmVyc2lvbj0iMS4wIiBlbmNvZGluZz0iVVRGLTgiIHN0YW5kYWxvbmU9Im5vIj8+CjwhLS0gQ3JlYXRlZCB3aXRoIElua3NjYXBlIChodHRwOi8vd3d3Lmlua3NjYXBlLm9yZy8pIC0tPgoKPHN2ZwogICB3aWR0aD0iMjYuNDU4MzI2bW0iCiAgIGhlaWdodD0iMjkuMTA0Mm1tIgogICB2aWV3Qm94PSIwIDAgMjYuNDU4MzI2IDI5LjEwNDIiCiAgIHZlcnNpb249IjEuMSIKICAgaWQ9InN2ZzczNjIiCiAgIHhtbG5zPSJodHRwOi8vd3d3LnczLm9yZy8yMDAwL3N2ZyIKICAgeG1sbnM6c3ZnPSJodHRwOi8vd3d3LnczLm9yZy8yMDAwL3N2ZyI+CiAgPGRlZnMKICAgICBpZD0iZGVmczczNTkiIC8+CiAgPGcKICAgICBpZD0ibGF5ZXIxIgogICAgIHN0eWxlPSJkaXNwbGF5OmlubGluZSIKICAgICB0cmFuc2Zvcm09InRyYW5zbGF0ZSgzNC4zOTU4MzMsLTE5My4xNDU4NCkiPgogICAgPGcKICAgICAgIGlkPSJnMi0wLTQiCiAgICAgICB0cmFuc2Zvcm09InRyYW5zbGF0ZSgtMjE2Ljk1ODMzLDk3Ljg5NTg0MykiCiAgICAgICBzdHlsZT0iZGlzcGxheTppbmxpbmUiPgogICAgICA8ZwogICAgICAgICBpZD0iZzE4NDg4LTU0LTQtMS01IgogICAgICAgICB0cmFuc2Zvcm09InRyYW5zbGF0ZSg1OC4yMDgzMzQsMi42NDU4MzY5KSI+CiAgICAgICAgPHBhdGgKICAgICAgICAgICBpZD0icGF0aDYyNzYtNC00LTY1LTUtOSIKICAgICAgICAgICBzdHlsZT0iZmlsbDojZmZmZmZmO3N0cm9rZS13aWR0aDowLjIzMDcwMiIKICAgICAgICAgICBkPSJtIDEzMi4yOTE2Niw5My45MjcwNzIgdiAyMS4xNjY2NjggaCAxNS44NzUwMSBWIDk5LjIxODc0OCBsIC01LjI5MTY4LC01LjI5MTY3NiB6IiAvPgogICAgICAgIDxwYXRoCiAgICAgICAgICAgaWQ9InBhdGg1ODYyLTEtMy00LTYiCiAgICAgICAgICAgZD0ibSAxNDkuNDg5NTgsOTcuODk1ODMyIGMgMCwtMC4yNjQ1NzYgLTAuMjY0NTgsLTAuNTI5MTY0IC0wLjUyOTE3LC0wLjc5Mzc1MiBsIC00LjQ5NzkxLC0zLjk2ODc0OCBjIC0wLjI2NDU4LC0wLjI2NDU4OCAtMC41MjkxNywtMC41MjkxNjQgLTAuODI3ODgsLTAuNTI5MTY0IGwgLTYuMDUxMjksLTEuM2UtNSAtNS4yOTE2NywxLjNlLTUgYyAtMC43OTM3NSwyZS02IC0xLjMyMjkyLDAuNTI5MTY0IC0xLjMyMjkyLDEuMzIyOTE2IHYgMjEuMTY2NjY2IGMgMCwwLjc5Mzc1IDAuNTI5MTcsMS4zMjI5MiAxLjMyMjkyLDEuMzIyOTIgaCA3LjkzNzUxIDcuOTM3NSBjIDAuNzkzNzQsMCAxLjMyMjkxLC0wLjUyOTE3IDEuMzIyOTEsLTEuMzIyOTIgeiBtIC0xLjMyMjkxLDE3LjE5NzkxOCBIIDEzMi4yOTE2NiBWIDkzLjkyNzA4NCBoIDEwLjU4MzMzIHYgNC43NjI1IGMgMCwwLjMxNzUwOCAwLjIwMzUzLDAuNTI5MTY0IDAuNTI5MTcsMC41MjkxNjQgaCA0Ljc2MjUxIHoiCiAgICAgICAgICAgc3R5bGU9InN0cm9rZS13aWR0aDowLjIzMTY3IiAvPgogICAgICAgIDxwYXRoCiAgICAgICAgICAgaWQ9InJlY3QxODM0Ny0yLTYtNi0wIgogICAgICAgICAgIHN0eWxlPSJmaWxsLXJ1bGU6ZXZlbm9kZDtzdHJva2Utd2lkdGg6MC4xMjIwMjc7cGFpbnQtb3JkZXI6ZmlsbCBtYXJrZXJzIHN0cm9rZSIKICAgICAgICAgICBkPSJtIDEzMS4wMTc1MiwxMDEuODY0NiBoIDE4LjQyMzI2IGMgMC43NTk5MywwIDEuMzcxNzEsMC40OTcwNiAxLjM3MTcxLDEuMTE0NSB2IDQuMTc3MTQgMS41MzEzMyBjIDAsMC42MTc0NCAtMC42MTE3OCwxLjExNDUgLTEuMzcxNzEsMS4xMTQ1IGggLTE4LjQyMzI2IGMgLTAuNzU5OTIsMCAtMS4zNzE3LC0wLjQ5NzA2IC0xLjM3MTcsLTEuMTE0NSB2IC0yLjg1NDI1IC0yLjg1NDIyIGMgMCwtMC42MTc0NCAwLjYxMTc4LC0xLjExNDUgMS4zNzE3LC0xLjExNDUgeiIgLz4KICAgICAgICA8dGV4dAogICAgICAgICAgIHhtbDpzcGFjZT0icHJlc2VydmUiCiAgICAgICAgICAgc3R5bGU9ImZvbnQtd2VpZ2h0OmJvbGQ7Zm9udC1zaXplOjUuMjkxNjdweDtmb250LWZhbWlseTonTWF2ZW4gUHJvJzstaW5rc2NhcGUtZm9udC1zcGVjaWZpY2F0aW9uOidNYXZlbiBQcm8sIEJvbGQnO3RleHQtYWxpZ246Y2VudGVyO3RleHQtb3JpZW50YXRpb246dXByaWdodDt0ZXh0LWFuY2hvcjptaWRkbGU7ZmlsbDojZmZmZmZmO2ZpbGwtb3BhY2l0eToxO3N0cm9rZTpub25lO3N0cm9rZS13aWR0aDowLjIyNzk1MTtzdHJva2UtbGluZWNhcDpyb3VuZDtzdHJva2UtbGluZWpvaW46bWl0ZXI7c3Ryb2tlLW1pdGVybGltaXQ6MC42O3N0cm9rZS1kYXNoYXJyYXk6bm9uZTtzdHJva2UtZGFzaG9mZnNldDoyLjAwMDAxO3N0cm9rZS1vcGFjaXR5OjE7cGFpbnQtb3JkZXI6ZmlsbCBtYXJrZXJzIHN0cm9rZTtzdG9wLWNvbG9yOiMwMDAwMDAiCiAgICAgICAgICAgeD0iMTQwLjMzODk2IgogICAgICAgICAgIHk9IjEwNy4yMTE4IgogICAgICAgICAgIGlkPSJ0ZXh0MTg1NjktNi00MS0zLTIiPjx0c3BhbgogICAgICAgICAgICAgaWQ9InRzcGFuMTg1NjctNDItNS0xLTYiCiAgICAgICAgICAgICBzdHlsZT0iZmlsbDojZmZmZmZmO2ZpbGwtb3BhY2l0eToxO3N0cm9rZTpub25lO3N0cm9rZS13aWR0aDowLjIyNzk1MSIKICAgICAgICAgICAgIHg9IjE0MC4zMzg5NiIKICAgICAgICAgICAgIHk9IjEwNy4yMTE4Ij5mYXN0cTwvdHNwYW4+PC90ZXh0PgogICAgICA8L2c+CiAgICAgIDxnCiAgICAgICAgIGlkPSJnMTg0ODgtNTQtOC0wLTMtNiIKICAgICAgICAgdHJhbnNmb3JtPSJ0cmFuc2xhdGUoNTUuNTYyNTA0LDUuMjkxNjYyNCkiPgogICAgICAgIDxwYXRoCiAgICAgICAgICAgaWQ9InBhdGg2Mjc2LTQtNC02LTktMDYtMSIKICAgICAgICAgICBzdHlsZT0iZmlsbDojZmZmZmZmO3N0cm9rZS13aWR0aDowLjIzMDcwMiIKICAgICAgICAgICBkPSJtIDEzMi4yOTE2Niw5My45MjcwNzIgdiAyMS4xNjY2NjggaCAxNS44NzUwMSBWIDk5LjIxODc0OCBsIC01LjI5MTY4LC01LjI5MTY3NiB6IiAvPgogICAgICAgIDxwYXRoCiAgICAgICAgICAgaWQ9InBhdGg1ODYyLTEtMS0zLTgtMCIKICAgICAgICAgICBkPSJtIDE0OS40ODk1OCw5Ny44OTU4MzIgYyAwLC0wLjI2NDU3NiAtMC4yNjQ1OCwtMC41MjkxNjQgLTAuNTI5MTcsLTAuNzkzNzUyIGwgLTQuNDk3OTEsLTMuOTY4NzQ4IGMgLTAuMjY0NTgsLTAuMjY0NTg4IC0wLjUyOTE3LC0wLjUyOTE2NCAtMC44Mjc4OCwtMC41MjkxNjQgaCAtMy40MDU0NSAtNy45Mzc1MSBjIC0wLjc5Mzc1LDAgLTEuMzIyOTIsMC41MjkxNjQgLTEuMzIyOTIsMS4zMjI5MTYgMCw3LjA1NTU1NiAwLDE0LjExMTEwNiAwLDIxLjE2NjY2NiAwLDAuNzkzNzUgMC41MjkxNywxLjMyMjkyIDEuMzIyOTIsMS4zMjI5MiBoIDcuOTM3NTEgNy45Mzc1IGMgMC43OTM3NCwwIDEuMzIyOTEsLTAuNTI5MTcgMS4zMjI5MSwtMS4zMjI5MiB6IG0gLTEuMzIyOTEsMTcuMTk3OTE4IEggMTMyLjI5MTY2IFYgOTMuOTI3MDg0IGggMTAuNTgzMzMgdiA0Ljc2MjUgYyAwLDAuMzE3NTA4IDAuMjAzNTMsMC41MjkxNjQgMC41MjkxNywwLjUyOTE2NCBoIDQuNzYyNTEgeiIKICAgICAgICAgICBzdHlsZT0ic3Ryb2tlLXdpZHRoOjAuMjMxNjciIC8+CiAgICAgICAgPHBhdGgKICAgICAgICAgICBpZD0icmVjdDE4MzQ3LTItNS0xLTAtNiIKICAgICAgICAgICBzdHlsZT0iZmlsbC1ydWxlOmV2ZW5vZGQ7c3Ryb2tlLXdpZHRoOjAuMTIyMDI3O3BhaW50LW9yZGVyOmZpbGwgbWFya2VycyBzdHJva2UiCiAgICAgICAgICAgZD0ibSAxMzEuMDE3NTIsMTAxLjg2NDYgYyA2LjE0MTA5LDAgMTIuMjgyMTcsMCAxOC40MjMyNiwwIDAuNzU5OTMsMCAxLjM3MTcxLDAuNDk3MDYgMS4zNzE3MSwxLjExNDUgdiAyLjg1NDIyIDIuODU0MjUgYyAwLDAuNjE3NDQgLTAuNjExNzgsMS4xMTQ1IC0xLjM3MTcxLDEuMTE0NSAtNi4xNDEwOSwwIC0xMi4yODIxNywwIC0xOC40MjMyNiwwIC0wLjc1OTkyLDAgLTEuMzcxNywtMC40OTcwNiAtMS4zNzE3LC0xLjExNDUgdiAtMi44NTQyNSAtMi44NTQyMiBjIDAsLTAuNjE3NDQgMC42MTE3OCwtMS4xMTQ1IDEuMzcxNywtMS4xMTQ1IHoiIC8+CiAgICAgICAgPHRleHQKICAgICAgICAgICB4bWw6c3BhY2U9InByZXNlcnZlIgogICAgICAgICAgIHN0eWxlPSJmb250LXdlaWdodDpib2xkO2ZvbnQtc2l6ZTo1LjI5MTY3cHg7Zm9udC1mYW1pbHk6J01hdmVuIFBybyc7LWlua3NjYXBlLWZvbnQtc3BlY2lmaWNhdGlvbjonTWF2ZW4gUHJvLCBCb2xkJzt0ZXh0LWFsaWduOmNlbnRlcjt0ZXh0LW9yaWVudGF0aW9uOnVwcmlnaHQ7dGV4dC1hbmNob3I6bWlkZGxlO2ZpbGw6I2ZmZmZmZjtmaWxsLW9wYWNpdHk6MTtzdHJva2U6bm9uZTtzdHJva2Utd2lkdGg6MC4yMjc5NTE7c3Ryb2tlLWxpbmVjYXA6cm91bmQ7c3Ryb2tlLWxpbmVqb2luOm1pdGVyO3N0cm9rZS1taXRlcmxpbWl0OjAuNjtzdHJva2UtZGFzaGFycmF5Om5vbmU7c3Ryb2tlLWRhc2hvZmZzZXQ6Mi4wMDAwMTtzdHJva2Utb3BhY2l0eToxO3BhaW50LW9yZGVyOmZpbGwgbWFya2VycyBzdHJva2U7c3RvcC1jb2xvcjojMDAwMDAwIgogICAgICAgICAgIHg9IjE0MC4zMzg5NiIKICAgICAgICAgICB5PSIxMDcuMjExOCIKICAgICAgICAgICBpZD0idGV4dDE4NTY5LTYtNC03LTItNyI+PHRzcGFuCiAgICAgICAgICAgICBpZD0idHNwYW4xODU2Ny00Mi0xLTUtNzEtMCIKICAgICAgICAgICAgIHN0eWxlPSJmaWxsOiNmZmZmZmY7ZmlsbC1vcGFjaXR5OjE7c3Ryb2tlOm5vbmU7c3Ryb2tlLXdpZHRoOjAuMjI3OTUxIgogICAgICAgICAgICAgeD0iMTQwLjMzODk2IgogICAgICAgICAgICAgeT0iMTA3LjIxMTgiPmZhc3RxPC90c3Bhbj48L3RleHQ+CiAgICAgIDwvZz4KICAgICAgPGcKICAgICAgICAgaWQ9ImcxODQ4OC01NC04LTAtOC02LTQiCiAgICAgICAgIHRyYW5zZm9ybT0idHJhbnNsYXRlKDUyLjkxNjY3NSw3LjkzNzUxNjIpIj4KICAgICAgICA8cGF0aAogICAgICAgICAgIGlkPSJwYXRoNjI3Ni00LTQtNi05LTAtMi0zIgogICAgICAgICAgIHN0eWxlPSJmaWxsOiNmZmZmZmY7c3Ryb2tlLXdpZHRoOjAuMjMwNzAyIgogICAgICAgICAgIGQ9Im0gMTMyLjI5MTY2LDkzLjkyNzA3MiB2IDIxLjE2NjY2OCBoIDE1Ljg3NTAxIFYgOTkuMjE4NzQ4IGwgLTUuMjkxNjgsLTUuMjkxNjc2IHoiIC8+CiAgICAgICAgPHBhdGgKICAgICAgICAgICBpZD0icGF0aDU4NjItMS0xLTMtOS04LTAiCiAgICAgICAgICAgZD0ibSAxNDkuNDg5NTgsOTcuODk1ODMyIGMgMCwtMC4yNjQ1NzYgLTAuMjY0NTgsLTAuNTI5MTY0IC0wLjUyOTE3LC0wLjc5Mzc1MiBsIC00LjQ5NzkxLC0zLjk2ODc0OCBjIC0wLjI2NDU4LC0wLjI2NDU4OCAtMC41MjkxNywtMC41MjkxNjQgLTAuODI3ODgsLTAuNTI5MTY0IGggLTMuNDA1NDUgLTcuOTM3NTEgYyAtMC43OTM3NSwwIC0xLjMyMjkyLDAuNTI5MTY0IC0xLjMyMjkyLDEuMzIyOTE2IHYgNy45Mzc0NzYgMTMuMjI5MTkgYyAwLDAuNzkzNzUgMC41MjkxNywxLjMyMjkyIDEuMzIyOTIsMS4zMjI5MiBsIDEwLjU4MzMzLC0zZS01IDUuMjkxNjgsM2UtNSBjIDAuNzkzNzQsMCAxLjMyMjkxLC0wLjUyOTE3IDEuMzIyOTEsLTEuMzIyOTIgeiBtIC0xLjMyMjkxLDE3LjE5NzkxOCBIIDEzMi4yOTE2NiBWIDkzLjkyNzA4NCBoIDEwLjU4MzMzIHYgNC43NjI1IGMgMCwwLjMxNzUwOCAwLjIwMzUzLDAuNTI5MTY0IDAuNTI5MTcsMC41MjkxNjQgaCA0Ljc2MjUxIHoiCiAgICAgICAgICAgc3R5bGU9InN0cm9rZS13aWR0aDowLjIzMTY3IiAvPgogICAgICAgIDxwYXRoCiAgICAgICAgICAgaWQ9InJlY3QxODM0Ny0yLTUtMS02LTItMCIKICAgICAgICAgICBzdHlsZT0iZmlsbC1ydWxlOmV2ZW5vZGQ7c3Ryb2tlLXdpZHRoOjAuMTIyMDI3O3BhaW50LW9yZGVyOmZpbGwgbWFya2VycyBzdHJva2UiCiAgICAgICAgICAgZD0ibSAxMzEuMDE3NTIsMTAxLjg2NDYgYyA2LjE0MTA5LDAgMTIuMjgyMTcsMCAxOC40MjMyNiwwIDAuNzU5OTMsMCAxLjM3MTcxLDAuNDk3MDYgMS4zNzE3MSwxLjExNDUgdiAyLjg1NDIyIDIuODU0MjUgYyAwLDAuNjE3NDQgLTAuNjExNzgsMS4xMTQ1IC0xLjM3MTcxLDEuMTE0NSAtNi4xNDEwOSwwIC0xMi4yODIxNywwIC0xOC40MjMyNiwwIC0wLjc1OTkyLDAgLTEuMzcxNywtMC40OTcwNiAtMS4zNzE3LC0xLjExNDUgdiAtMi44NTQyNSAtMi44NTQyMiBjIDAsLTAuNjE3NDQgMC42MTE3OCwtMS4xMTQ1IDEuMzcxNywtMS4xMTQ1IHoiIC8+CiAgICAgIDwvZz4KICAgIDwvZz4KICA8L2c+Cjwvc3ZnPgo=;strokeColor=#24B064;strokeWidth=10;align=center;verticalAlign=middle;fontFamily=Helvetica;fontSize=12;fontColor=default;fillColor=none;" vertex="1" parent="BkZe_GpuJbEBKpTBHpC8-99">
          <mxGeometry width="100" height="110" as="geometry" />
        </mxCell>
        <mxCell id="BkZe_GpuJbEBKpTBHpC8-101" value="&lt;font style=&quot;font-size: 20px;&quot; data-font-src=&quot;https://fonts.googleapis.com/css?family=Maven+Pro&quot; face=&quot;Maven Pro&quot; color=&quot;#ffffff&quot;&gt;&lt;b&gt;?&lt;/b&gt;&lt;/font&gt;" style="text;html=1;strokeColor=none;fillColor=none;align=center;verticalAlign=middle;whiteSpace=wrap;rounded=0;fontFamily=Helvetica;fontSize=12;fontColor=default;" vertex="1" parent="BkZe_GpuJbEBKpTBHpC8-99">
          <mxGeometry x="10" y="55" width="60" height="30" as="geometry" />
        </mxCell>
        <mxCell id="BkZe_GpuJbEBKpTBHpC8-104" value="&lt;font style=&quot;font-size: 20px;&quot; data-font-src=&quot;https://fonts.googleapis.com/css?family=Maven+Pro&quot; face=&quot;Maven Pro&quot;&gt;&lt;b&gt;candidate transmissible RNA&lt;/b&gt;&lt;/font&gt;" style="text;html=1;align=center;verticalAlign=middle;resizable=0;points=[];autosize=1;strokeColor=none;fillColor=none;fontFamily=Helvetica;fontSize=12;fontColor=default;" vertex="1" parent="WIyWlLk6GJQsqaUBKTNV-1">
          <mxGeometry x="201.81" y="1180" width="300" height="40" as="geometry" />
        </mxCell>
      </root>
    </mxGraphModel>
  </diagram>
</mxfile>
